<svg width="64" height="64" viewBox="0 0 64 64" fill="none" xmlns="http://www.w3.org/2000/svg">
<g clip-path="url(#clip0_187_36)">
<path d="M31.73 14.865C31.73 7.20755 25.5224 0.999981 17.865 0.999981C10.2076 0.999981 4 7.20755 4 14.865C4 22.5224 10.2076 28.73 17.865 28.73C25.5224 28.73 31.73 22.5224 31.73 14.865Z" fill="#FF5348"/>
<path d="M27.8115 35.6094C19.6775 44.8016 11.3214 62 39.4135 62C55.4832 62 66.5415 53.9939 49.2815 35.6094M27.8115 35.6094C31.3825 35.6094 41.6632 35.6094 49.2815 35.6094M27.8115 35.6094C26.9246 34.3203 24.4215 31.9873 24.4215 31.9873M49.2815 35.6094C49.2815 35.6094 55.8655 32.0717 54.9315 28.365C53.2365 21.6381 42.1797 19.8802 34.5915 21.6381" stroke="#234361" stroke-width="4" stroke-linecap="round"/>
<path d="M34.8735 42C35.7669 42 36.5037 42.109 37.0839 42.327C37.6642 42.536 38.097 42.8585 38.3826 43.2945C38.6681 43.7215 38.8108 44.2621 38.8108 44.9161C38.8108 45.3613 38.7233 45.7519 38.5483 46.0881C38.3826 46.4151 38.1569 46.6967 37.8714 46.9329C37.5951 47.16 37.2958 47.3463 36.9734 47.4916L39.8746 51.7296H37.5537L35.2051 47.9958H34.0861V51.7296H32V42H34.8735ZM34.7216 43.6897H34.0861V46.3197H34.763C35.2235 46.3197 35.5965 46.2697 35.882 46.1698C36.1675 46.0699 36.3748 45.92 36.5037 45.7201C36.6327 45.5112 36.6971 45.2614 36.6971 44.9706C36.6971 44.6618 36.6234 44.4165 36.4761 44.2348C36.3379 44.044 36.1215 43.9078 35.8268 43.826C35.5413 43.7352 35.1729 43.6897 34.7216 43.6897Z" fill="#234361"/>
<path d="M45.1541 44.153C46.0014 44.153 46.6876 44.4801 47.2125 45.1342C47.7375 45.7792 48 46.7331 48 47.9958C48 48.8407 47.8757 49.5538 47.627 50.1352C47.3783 50.7075 47.0376 51.1391 46.6047 51.4298C46.1718 51.7205 45.6699 51.8658 45.0988 51.8658C44.7396 51.8658 44.4265 51.8204 44.1594 51.7296C43.9015 51.6387 43.6805 51.5206 43.4963 51.3753C43.3121 51.2299 43.1509 51.0755 43.0128 50.912H42.9022C42.9391 51.0846 42.9667 51.2662 42.9851 51.457C43.0036 51.6387 43.0128 51.8204 43.0128 52.0021V55H40.9543V44.2893H42.6259L42.9161 45.2568H43.0128C43.1509 45.057 43.3167 44.8753 43.5101 44.7117C43.7035 44.5391 43.9338 44.4029 44.2009 44.3029C44.4772 44.203 44.7949 44.153 45.1541 44.153ZM44.491 45.7746C44.1318 45.7746 43.8463 45.8473 43.6344 45.9927C43.4226 46.138 43.266 46.3606 43.1647 46.6604C43.0726 46.9511 43.022 47.319 43.0128 47.7642V47.9822C43.0128 48.4637 43.0588 48.8725 43.1509 49.2086C43.243 49.5356 43.3996 49.7855 43.6206 49.9581C43.8417 50.1307 44.141 50.217 44.5186 50.217C44.8317 50.217 45.0896 50.1307 45.2922 49.9581C45.4949 49.7855 45.6468 49.5311 45.7481 49.195C45.8495 48.8588 45.9001 48.45 45.9001 47.9686C45.9001 47.2418 45.785 46.6967 45.5547 46.3333C45.3337 45.9609 44.9791 45.7746 44.491 45.7746Z" fill="#234361"/>
</g>
<defs>
<clipPath id="clip0_187_36">
<rect width="64" height="64" fill="white"/>
</clipPath>
</defs>
</svg>
