<svg width="64" height="65" viewBox="0 0 64 65" fill="none" xmlns="http://www.w3.org/2000/svg">
<g clip-path="url(#clip0_97_80)">
<path d="M26 13.5C26 6.3203 20.1797 0.5 13 0.5C5.8203 0.5 0 6.3203 0 13.5C0 20.6797 5.8203 26.5 13 26.5C20.1797 26.5 26 20.6797 26 13.5Z" fill="#C56BDA"/>
<path d="M37 38.5L47 28.5" stroke="#234361" stroke-width="3" stroke-linecap="round" stroke-linejoin="round"/>
<path d="M38.3605 30.2209C39.1118 30.2209 39.7209 29.6118 39.7209 28.8605C39.7209 28.1091 39.1118 27.5 38.3605 27.5C37.6091 27.5 37 28.1091 37 28.8605C37 29.6118 37.6091 30.2209 38.3605 30.2209Z" fill="#234361" stroke="#234361" stroke-width="2" stroke-linecap="round" stroke-linejoin="round"/>
<path d="M45.3605 39.2209C46.1118 39.2209 46.7209 38.6118 46.7209 37.8605C46.7209 37.1091 46.1118 36.5 45.3605 36.5C44.6091 36.5 44 37.1091 44 37.8605C44 38.6118 44.6091 39.2209 45.3605 39.2209Z" fill="#234361" stroke="#234361" stroke-width="2" stroke-linecap="round" stroke-linejoin="round"/>
<path d="M28.2403 10.2652C28.7966 9.70576 29.458 9.26182 30.1865 8.95888C30.9149 8.65595 31.6961 8.5 32.485 8.5C33.2739 8.5 34.0551 8.65595 34.7835 8.95888C35.512 9.26182 36.1734 9.70576 36.7296 10.2652L38.6343 12.1698C39.7551 13.2843 41.2712 13.9103 42.8517 13.9112H45.5727C47.1603 13.9112 48.6829 14.5419 49.8055 15.6645C50.9281 16.7871 51.5587 18.3097 51.5587 19.8973V22.6182C51.5596 24.1988 52.1856 25.7149 53.3001 26.8357L55.2048 28.7403C55.7642 29.2966 56.2081 29.958 56.5111 30.6865C56.814 31.4149 56.97 32.1961 56.97 32.985C56.97 33.7739 56.814 34.5551 56.5111 35.2835C56.2081 36.012 55.7642 36.6734 55.2048 37.2296L53.3001 39.1343C52.1856 40.2551 51.5596 41.7712 51.5587 43.3517V46.0727C51.5587 47.6603 50.9281 49.1829 49.8055 50.3055C48.6829 51.4281 47.1603 52.0587 45.5727 52.0587H42.8517C41.2712 52.0596 39.7551 52.6856 38.6343 53.8001L36.7296 55.7048C36.1734 56.2642 35.512 56.7081 34.7835 57.0111C34.0551 57.314 33.2739 57.47 32.485 57.47C31.6961 57.47 30.9149 57.314 30.1865 57.0111C29.458 56.7081 28.7966 56.2642 28.2403 55.7048L26.3357 53.8001C25.2149 52.6856 23.6988 52.0596 22.1182 52.0587H19.3973C17.8097 52.0587 16.2871 51.4281 15.1645 50.3055C14.0419 49.1829 13.4112 47.6603 13.4112 46.0727V43.3517C13.4103 41.7712 12.7843 40.2551 11.6698 39.1343L9.76519 37.2296C9.20576 36.6734 8.76182 36.012 8.45888 35.2835C8.15595 34.5551 8 33.7739 8 32.985C8 32.1961 8.15595 31.4149 8.45888 30.6865C8.76182 29.958 9.20576 29.2966 9.76519 28.7403" stroke="#234361" stroke-width="4" stroke-linecap="round" stroke-linejoin="round"/>
<path d="M18 29.8096V27.7261H21.9323V39.5H19.5827V29.8096H18Z" fill="#234361"/>
<path d="M24.189 33.4596C24.189 31.5969 24.5262 30.138 25.2006 29.0828C25.8859 28.0276 27.0172 27.5 28.5945 27.5C30.1718 27.5 31.2976 28.0276 31.972 29.0828C32.6573 30.138 33 31.5969 33 33.4596C33 35.3331 32.6573 36.8028 31.972 37.8688C31.2976 38.9347 30.1718 39.4677 28.5945 39.4677C27.0172 39.4677 25.8859 38.9347 25.2006 37.8688C24.5262 36.8028 24.189 35.3331 24.189 33.4596ZM30.7483 33.4596C30.7483 32.6629 30.6939 31.9953 30.5851 31.4569C30.4872 30.9078 30.2806 30.461 29.9651 30.1164C29.6605 29.7719 29.2037 29.5996 28.5945 29.5996C27.9853 29.5996 27.523 29.7719 27.2076 30.1164C26.903 30.461 26.6963 30.9078 26.5875 31.4569C26.4896 31.9953 26.4407 32.6629 26.4407 33.4596C26.4407 34.2779 26.4896 34.967 26.5875 35.5269C26.6854 36.076 26.8921 36.5229 27.2076 36.8674C27.523 37.2012 27.9853 37.3681 28.5945 37.3681C29.2037 37.3681 29.666 37.2012 29.9814 36.8674C30.2969 36.5229 30.5035 36.076 30.6014 35.5269C30.6993 34.967 30.7483 34.2779 30.7483 33.4596Z" fill="#234361"/>
</g>
<defs>
<clipPath id="clip0_97_80">
<rect width="64" height="64" fill="white" transform="translate(0 0.5)"/>
</clipPath>
</defs>
</svg>
