<svg width="64" height="65" viewBox="0 0 64 65" fill="none" xmlns="http://www.w3.org/2000/svg">
<g clip-path="url(#clip0_97_80)">
<path d="M26 13.5C26 6.3203 20.1797 0.5 13 0.5C5.8203 0.5 0 6.3203 0 13.5C0 20.6797 5.8203 26.5 13 26.5C20.1797 26.5 26 20.6797 26 13.5Z" fill="#C56BDA"/>
<path d="M38 38L47 29" stroke="#234361" stroke-width="3" stroke-linecap="round" stroke-linejoin="round"/>
<path d="M39.3605 30.7209C40.1118 30.7209 40.7209 30.1118 40.7209 29.3605C40.7209 28.6091 40.1118 28 39.3605 28C38.6091 28 38 28.6091 38 29.3605C38 30.1118 38.6091 30.7209 39.3605 30.7209Z" fill="#234361" stroke="#234361" stroke-width="2" stroke-linecap="round" stroke-linejoin="round"/>
<path d="M46.3605 38.7209C47.1118 38.7209 47.7209 38.1118 47.7209 37.3605C47.7209 36.6091 47.1118 36 46.3605 36C45.6091 36 45 36.6091 45 37.3605C45 38.1118 45.6091 38.7209 46.3605 38.7209Z" fill="#234361" stroke="#234361" stroke-width="2" stroke-linecap="round" stroke-linejoin="round"/>
<path d="M28.2403 10.2652C28.7966 9.70576 29.458 9.26182 30.1865 8.95888C30.9149 8.65595 31.6961 8.5 32.485 8.5C33.2739 8.5 34.0551 8.65595 34.7835 8.95888C35.512 9.26182 36.1734 9.70576 36.7296 10.2652L38.6343 12.1698C39.7551 13.2843 41.2712 13.9103 42.8517 13.9112H45.5727C47.1603 13.9112 48.6829 14.5419 49.8055 15.6645C50.9281 16.7871 51.5587 18.3097 51.5587 19.8973V22.6182C51.5596 24.1988 52.1856 25.7149 53.3001 26.8357L55.2048 28.7403C55.7642 29.2966 56.2081 29.958 56.5111 30.6865C56.814 31.4149 56.97 32.1961 56.97 32.985C56.97 33.7739 56.814 34.5551 56.5111 35.2835C56.2081 36.012 55.7642 36.6734 55.2048 37.2296L53.3001 39.1343C52.1856 40.2551 51.5596 41.7712 51.5587 43.3517V46.0727C51.5587 47.6603 50.9281 49.1829 49.8055 50.3055C48.6829 51.4281 47.1603 52.0587 45.5727 52.0587H42.8517C41.2712 52.0596 39.7551 52.6856 38.6343 53.8001L36.7296 55.7048C36.1734 56.2642 35.512 56.7081 34.7835 57.0111C34.0551 57.314 33.2739 57.47 32.485 57.47C31.6961 57.47 30.9149 57.314 30.1865 57.0111C29.458 56.7081 28.7966 56.2642 28.2403 55.7048L26.3357 53.8001C25.2149 52.6856 23.6988 52.0596 22.1182 52.0587H19.3973C17.8097 52.0587 16.2871 51.4281 15.1645 50.3055C14.0419 49.1829 13.4112 47.6603 13.4112 46.0727V43.3517C13.4103 41.7712 12.7843 40.2551 11.6698 39.1343L9.76519 37.2296C9.20576 36.6734 8.76182 36.012 8.45888 35.2835C8.15595 34.5551 8 33.7739 8 32.985C8 32.1961 8.15595 31.4149 8.45888 30.6865C8.76182 29.958 9.20576 29.2966 9.76519 28.7403" stroke="#234361" stroke-width="4" stroke-linecap="round" stroke-linejoin="round"/>
<path d="M21.5723 28V39.8382H18.7168V30.6705H18.6474L16 32.289V29.815L18.9191 28H21.5723Z" fill="#234361"/>
<path d="M28.7211 40C27.8579 40 27.091 39.8439 26.4205 39.5318C25.75 39.2197 25.2201 38.79 24.8309 38.2428C24.4456 37.6956 24.2452 37.0674 24.2298 36.3584H27.0043C27.0275 36.7938 27.2047 37.1445 27.5361 37.4104C27.8675 37.6724 28.2625 37.8035 28.7211 37.8035C29.0795 37.8035 29.3974 37.7245 29.6749 37.5665C29.9523 37.4085 30.17 37.1869 30.328 36.9017C30.486 36.6127 30.5631 36.2813 30.5592 35.9075C30.5631 35.526 30.4841 35.1927 30.3223 34.9075C30.1643 34.6224 29.9446 34.4008 29.6633 34.2428C29.3858 34.0809 29.066 34 28.7038 34C28.3608 33.9961 28.0352 34.0713 27.7269 34.2254C27.4224 34.3796 27.1912 34.5896 27.0332 34.8555L24.5072 34.3815L25.0217 28H32.6171V30.3064H27.3743L27.1026 33.0983H27.172C27.3685 32.7707 27.6845 32.501 28.1199 32.289C28.5592 32.0732 29.0583 31.9653 29.6171 31.9653C30.3261 31.9653 30.9581 32.131 31.513 32.4624C32.0718 32.79 32.5111 33.2447 32.8309 33.8266C33.1546 34.4085 33.3165 35.0751 33.3165 35.8266C33.3165 36.6397 33.1238 37.3603 32.7384 37.9884C32.3569 38.6166 31.8213 39.1098 31.1315 39.4682C30.4456 39.8227 29.6421 40 28.7211 40Z" fill="#234361"/>
</g>
<defs>
<clipPath id="clip0_97_80">
<rect width="64" height="64" fill="white" transform="translate(0 0.5)"/>
</clipPath>
</defs>
</svg>
