<svg width="726" height="139" viewBox="0 0 726 139" fill="none" xmlns="http://www.w3.org/2000/svg">
<path d="M3.5 2C3.5 1.17157 2.82843 0.5 2 0.5C1.17157 0.5 0.5 1.17157 0.5 2H3.5ZM725.061 128.061C725.646 127.475 725.646 126.525 725.061 125.939L715.515 116.393C714.929 115.808 713.979 115.808 713.393 116.393C712.808 116.979 712.808 117.929 713.393 118.515L721.879 127L713.393 135.485C712.808 136.071 712.808 137.021 713.393 137.607C713.979 138.192 714.929 138.192 715.515 137.607L725.061 128.061ZM0.5 11.625C0.5 12.4534 1.17157 13.125 2 13.125C2.82843 13.125 3.5 12.4534 3.5 11.625H0.5ZM3.5 30.875C3.5 30.0466 2.82843 29.375 2 29.375C1.17157 29.375 0.5 30.0466 0.5 30.875H3.5ZM0.5 50.125C0.5 50.9534 1.17157 51.625 2 51.625C2.82843 51.625 3.5 50.9534 3.5 50.125H0.5ZM3.5 69.375C3.5 68.5466 2.82843 67.875 2 67.875C1.17157 67.875 0.5 68.5466 0.5 69.375H3.5ZM1.44215 88.6589C1.60292 89.4716 2.39206 90 3.20474 89.8393C4.01741 89.6785 4.54589 88.8894 4.38512 88.0767L1.44215 88.6589ZM11.3313 104.835C10.8704 104.147 9.93878 103.962 9.25038 104.423C8.56199 104.884 8.37754 105.816 8.83841 106.504L11.3313 104.835ZM22.496 120.162C23.1844 120.622 24.116 120.438 24.5769 119.75C25.0378 119.061 24.8533 118.13 24.1649 117.669L22.496 120.162ZM40.9233 124.615C40.1107 124.454 39.3215 124.983 39.1607 125.795C39 126.608 39.5284 127.397 40.3411 127.558L40.9233 124.615ZM58.0238 128.5C58.8522 128.5 59.5238 127.828 59.5238 127C59.5238 126.172 58.8522 125.5 58.0238 125.5V128.5ZM74.0714 125.5C73.243 125.5 72.5714 126.172 72.5714 127C72.5714 127.828 73.243 128.5 74.0714 128.5V125.5ZM90.119 128.5C90.9475 128.5 91.619 127.828 91.619 127C91.619 126.172 90.9475 125.5 90.119 125.5V128.5ZM106.167 125.5C105.338 125.5 104.667 126.172 104.667 127C104.667 127.828 105.338 128.5 106.167 128.5V125.5ZM122.214 128.5C123.043 128.5 123.714 127.828 123.714 127C123.714 126.172 123.043 125.5 122.214 125.5V128.5ZM138.262 125.5C137.433 125.5 136.762 126.172 136.762 127C136.762 127.828 137.433 128.5 138.262 128.5V125.5ZM154.31 128.5C155.138 128.5 155.81 127.828 155.81 127C155.81 126.172 155.138 125.5 154.31 125.5V128.5ZM170.357 125.5C169.529 125.5 168.857 126.172 168.857 127C168.857 127.828 169.529 128.5 170.357 128.5V125.5ZM186.405 128.5C187.233 128.5 187.905 127.828 187.905 127C187.905 126.172 187.233 125.5 186.405 125.5V128.5ZM202.452 125.5C201.624 125.5 200.952 126.172 200.952 127C200.952 127.828 201.624 128.5 202.452 128.5V125.5ZM218.5 128.5C219.328 128.5 220 127.828 220 127C220 126.172 219.328 125.5 218.5 125.5V128.5ZM234.548 125.5C233.719 125.5 233.048 126.172 233.048 127C233.048 127.828 233.719 128.5 234.548 128.5V125.5ZM250.595 128.5C251.424 128.5 252.095 127.828 252.095 127C252.095 126.172 251.424 125.5 250.595 125.5V128.5ZM266.643 125.5C265.814 125.5 265.143 126.172 265.143 127C265.143 127.828 265.814 128.5 266.643 128.5V125.5ZM282.69 128.5C283.519 128.5 284.19 127.828 284.19 127C284.19 126.172 283.519 125.5 282.69 125.5V128.5ZM298.738 125.5C297.91 125.5 297.238 126.172 297.238 127C297.238 127.828 297.91 128.5 298.738 128.5V125.5ZM314.786 128.5C315.614 128.5 316.286 127.828 316.286 127C316.286 126.172 315.614 125.5 314.786 125.5V128.5ZM330.833 125.5C330.005 125.5 329.333 126.172 329.333 127C329.333 127.828 330.005 128.5 330.833 128.5V125.5ZM346.881 128.5C347.709 128.5 348.381 127.828 348.381 127C348.381 126.172 347.709 125.5 346.881 125.5V128.5ZM362.929 125.5C362.1 125.5 361.429 126.172 361.429 127C361.429 127.828 362.1 128.5 362.929 128.5V125.5ZM378.976 128.5C379.805 128.5 380.476 127.828 380.476 127C380.476 126.172 379.805 125.5 378.976 125.5V128.5ZM395.024 125.5C394.195 125.5 393.524 126.172 393.524 127C393.524 127.828 394.195 128.5 395.024 128.5V125.5ZM411.071 128.5C411.9 128.5 412.571 127.828 412.571 127C412.571 126.172 411.9 125.5 411.071 125.5V128.5ZM427.119 125.5C426.291 125.5 425.619 126.172 425.619 127C425.619 127.828 426.291 128.5 427.119 128.5V125.5ZM443.167 128.5C443.995 128.5 444.667 127.828 444.667 127C444.667 126.172 443.995 125.5 443.167 125.5V128.5ZM459.214 125.5C458.386 125.5 457.714 126.172 457.714 127C457.714 127.828 458.386 128.5 459.214 128.5V125.5ZM475.262 128.5C476.09 128.5 476.762 127.828 476.762 127C476.762 126.172 476.09 125.5 475.262 125.5V128.5ZM491.309 125.5C490.481 125.5 489.809 126.172 489.809 127C489.809 127.828 490.481 128.5 491.309 128.5V125.5ZM507.357 128.5C508.185 128.5 508.857 127.828 508.857 127C508.857 126.172 508.185 125.5 507.357 125.5V128.5ZM523.405 125.5C522.576 125.5 521.905 126.172 521.905 127C521.905 127.828 522.576 128.5 523.405 128.5V125.5ZM539.452 128.5C540.281 128.5 540.952 127.828 540.952 127C540.952 126.172 540.281 125.5 539.452 125.5V128.5ZM555.5 125.5C554.671 125.5 554 126.172 554 127C554 127.828 554.671 128.5 555.5 128.5V125.5ZM571.547 128.5C572.376 128.5 573.047 127.828 573.047 127C573.047 126.172 572.376 125.5 571.547 125.5V128.5ZM587.595 125.5C586.767 125.5 586.095 126.172 586.095 127C586.095 127.828 586.767 128.5 587.595 128.5V125.5ZM603.643 128.5C604.471 128.5 605.143 127.828 605.143 127C605.143 126.172 604.471 125.5 603.643 125.5V128.5ZM619.69 125.5C618.862 125.5 618.19 126.172 618.19 127C618.19 127.828 618.862 128.5 619.69 128.5V125.5ZM635.738 128.5C636.566 128.5 637.238 127.828 637.238 127C637.238 126.172 636.566 125.5 635.738 125.5V128.5ZM651.785 125.5C650.957 125.5 650.285 126.172 650.285 127C650.285 127.828 650.957 128.5 651.785 128.5V125.5ZM667.833 128.5C668.662 128.5 669.333 127.828 669.333 127C669.333 126.172 668.662 125.5 667.833 125.5V128.5ZM683.881 125.5C683.052 125.5 682.381 126.172 682.381 127C682.381 127.828 683.052 128.5 683.881 128.5V125.5ZM699.928 128.5C700.757 128.5 701.428 127.828 701.428 127C701.428 126.172 700.757 125.5 699.928 125.5V128.5ZM715.976 125.5C715.147 125.5 714.476 126.172 714.476 127C714.476 127.828 715.147 128.5 715.976 128.5V125.5ZM0.5 2V11.625H3.5V2H0.5ZM0.5 30.875V50.125H3.5V30.875H0.5ZM0.5 69.375V79H3.5V69.375H0.5ZM0.5 79C0.5 82.304 0.823907 85.5337 1.44215 88.6589L4.38512 88.0767C3.8046 85.1423 3.5 82.1074 3.5 79H0.5ZM8.83841 106.504C12.4519 111.901 17.0986 116.548 22.496 120.162L24.1649 117.669C19.0934 114.273 14.7266 109.907 11.3313 104.835L8.83841 106.504ZM40.3411 127.558C43.4663 128.176 46.696 128.5 50 128.5V125.5C46.8926 125.5 43.8578 125.195 40.9233 124.615L40.3411 127.558ZM50 128.5H58.0238V125.5H50V128.5ZM74.0714 128.5H90.119V125.5H74.0714V128.5ZM106.167 128.5H122.214V125.5H106.167V128.5ZM138.262 128.5H154.31V125.5H138.262V128.5ZM170.357 128.5H186.405V125.5H170.357V128.5ZM202.452 128.5H218.5V125.5H202.452V128.5ZM234.548 128.5H250.595V125.5H234.548V128.5ZM266.643 128.5H282.69V125.5H266.643V128.5ZM298.738 128.5H314.786V125.5H298.738V128.5ZM330.833 128.5H346.881V125.5H330.833V128.5ZM362.929 128.5H378.976V125.5H362.929V128.5ZM395.024 128.5H411.071V125.5H395.024V128.5ZM427.119 128.5H443.167V125.5H427.119V128.5ZM459.214 128.5H475.262V125.5H459.214V128.5ZM491.309 128.5H507.357V125.5H491.309V128.5ZM523.405 128.5H539.452V125.5H523.405V128.5ZM555.5 128.5H571.547V125.5H555.5V128.5ZM587.595 128.5H603.643V125.5H587.595V128.5ZM619.69 128.5H635.738V125.5H619.69V128.5ZM651.785 128.5H667.833V125.5H651.785V128.5ZM683.881 128.5H699.928V125.5H683.881V128.5ZM715.976 128.5H724V125.5H715.976V128.5Z" fill="#9F9F9F"/>
</svg>
