<svg width="64" height="64" viewBox="0 0 64 64" fill="none" xmlns="http://www.w3.org/2000/svg">
<path d="M37.1334 16.0667C37.1334 8.40833 30.925 2.20001 23.2667 2.20001C15.6083 2.20001 9.40002 8.40833 9.40002 16.0667C9.40002 23.725 15.6083 29.9333 23.2667 29.9333C30.925 29.9333 37.1334 23.725 37.1334 16.0667Z" fill="#15D16C"/>
<path d="M61.25 40.9833C60.1666 40.0083 58.8667 39.575 57.4583 39.575C56.05 39.575 54.75 40.0083 53.6667 40.8749L47.0583 46.1833C46.8417 46.3999 46.5167 46.3999 46.2999 46.3999H41.75C42.2916 45.4249 42.5084 44.2333 42.2916 42.9333C41.8583 39.8999 39.0417 37.7333 36.0083 37.7333H20.4083C18.1333 37.7333 16.075 38.4916 14.125 39.8999L10.0083 42.9333H2.53332C1.55832 42.9333 0.799988 43.7999 0.799988 44.6666C0.799988 45.6416 1.55832 46.3999 2.42499 46.3999H11.0916L16.075 42.5C17.375 41.6332 18.7833 41.1999 20.2999 41.1999H36.2249C37.6333 41.1999 38.8249 42.2832 38.8249 43.7999C38.8249 45.2083 37.6333 46.3999 36.2249 46.3999H26.6916C25.7167 46.3999 24.9583 47.1582 24.9583 48.1333C24.9583 48.9999 25.7167 49.8666 26.6916 49.8666H46.1917C47.1667 49.8666 48.25 49.4333 49.0083 48.7833L55.725 43.4749C56.1583 43.1499 56.8083 42.9333 57.35 42.9333C57.8916 42.9333 58.4333 43.1499 58.7583 43.4749C59.95 44.45 59.8417 46.1833 58.7583 47.05L47.8166 55.7166C46.95 56.3667 45.975 56.7999 44.8916 56.7999H2.53332C1.55832 56.7999 0.799988 57.5582 0.799988 58.5333C0.799988 59.3999 1.55832 60.2666 2.42499 60.2666H44.8916C46.7333 60.2666 48.4667 59.725 49.9834 58.5333L60.925 49.7582C62.2249 48.7833 62.9834 47.1582 62.9834 45.4249C63.2 43.7999 62.4417 42.175 61.25 40.9833Z" fill="#234361"/>
<path d="M29.4314 10.6666C30.6225 10.6666 31.6049 10.8097 32.3786 11.096C33.1522 11.3703 33.7294 11.7937 34.1101 12.3661C34.4907 12.9267 34.6811 13.6363 34.6811 14.495C34.6811 15.0794 34.5644 15.5922 34.3311 16.0335C34.1101 16.4629 33.8092 16.8326 33.4285 17.1427C33.0601 17.4408 32.661 17.6853 32.2312 17.8761L36.0994 23.4398H33.0048L29.8734 18.538H28.3814V23.4398H25.6V10.6666H29.4314ZM29.2287 12.8849H28.3814V16.3376H29.284C29.898 16.3376 30.3953 16.272 30.776 16.1408C31.1567 16.0096 31.433 15.8129 31.6049 15.5505C31.7768 15.2762 31.8628 14.9482 31.8628 14.5666C31.8628 14.1611 31.7646 13.839 31.5681 13.6005C31.3839 13.3501 31.0953 13.1712 30.7023 13.0638C30.3217 12.9446 29.8305 12.8849 29.2287 12.8849Z" fill="#234361"/>
<path d="M43.1388 13.4932C44.2685 13.4932 45.1834 13.9225 45.8834 14.7812C46.5833 15.628 46.9333 16.8803 46.9333 18.538C46.9333 19.6472 46.7675 20.5834 46.436 21.3467C46.1044 22.0981 45.65 22.6646 45.0729 23.0462C44.4957 23.4279 43.8265 23.6187 43.0651 23.6187C42.5862 23.6187 42.1686 23.5591 41.8125 23.4398C41.4687 23.3205 41.174 23.1655 40.9284 22.9747C40.6828 22.7838 40.4679 22.5811 40.2837 22.3664H40.1363C40.1854 22.593 40.2223 22.8315 40.2468 23.082C40.2714 23.3205 40.2837 23.5591 40.2837 23.7976V27.7333H37.5391V13.6721H39.7679L40.1547 14.9422H40.2837C40.4679 14.6799 40.6889 14.4413 40.9468 14.2267C41.2047 14.0001 41.5117 13.8212 41.8678 13.69C42.2362 13.5588 42.6599 13.4932 43.1388 13.4932ZM42.2546 15.622C41.7757 15.622 41.395 15.7175 41.1126 15.9083C40.8301 16.0991 40.6214 16.3913 40.4863 16.7849C40.3635 17.1665 40.2959 17.6495 40.2837 18.2339V18.5202C40.2837 19.1523 40.3451 19.6889 40.4679 20.1302C40.5907 20.5596 40.7994 20.8875 41.0941 21.1141C41.3889 21.3407 41.788 21.454 42.2915 21.454C42.709 21.454 43.0528 21.3407 43.323 21.1141C43.5931 20.8875 43.7958 20.5536 43.9308 20.1123C44.0659 19.6711 44.1335 19.1344 44.1335 18.5023C44.1335 17.5482 43.98 16.8326 43.673 16.3555C43.3782 15.8665 42.9055 15.622 42.2546 15.622Z" fill="#234361"/>
</svg>
