<svg width="64" height="64" viewBox="0 0 64 64" fill="none" xmlns="http://www.w3.org/2000/svg">
<path d="M30 49C30 41.8203 24.1797 36 17 36C9.8203 36 4 41.8203 4 49C4 56.1797 9.8203 62 17 62C24.1797 62 30 56.1797 30 49Z" fill="#F79000"/>
<path d="M34.8333 51.6667C45.787 51.6667 54.6667 42.787 54.6667 31.8333C54.6667 20.8797 45.787 12 34.8333 12C27.8773 12 21.7577 15.581 18.2174 21M9 21H18.2174M18.2174 21C16.1827 24.1143 15 27.8357 15 31.8333H9" stroke="#234361" stroke-width="4" stroke-linecap="round" stroke-linejoin="round"/>
<path d="M40.95 39.8333L36.1622 35.0456C35.4183 34.3019 35.0002 33.2931 35 32.2411V20" stroke="#234361" stroke-width="3" stroke-linecap="round" stroke-linejoin="round"/>
</svg>
