<svg width="1440" height="432" viewBox="0 0 1440 432" fill="none" xmlns="http://www.w3.org/2000/svg">
<g clip-path="url(#clip0_169_17)">
<g opacity="0.5">
<path d="M1114.15 13.3032C1116.56 13.6452 1118.8 11.9336 1119.15 9.4803C1119.49 7.027 1117.82 4.76098 1115.4 4.41901C1112.99 4.07703 1110.75 5.7886 1110.4 8.24189C1110.06 10.6952 1111.73 12.9612 1114.15 13.3032Z" fill="#111618"/>
<path d="M1159.29 23.6308C1156.93 23.2964 1155.29 21.0897 1155.63 18.6909C1155.97 16.2922 1158.15 14.6254 1160.52 14.9598C1162.88 15.2942 1164.51 17.5009 1164.17 19.8996C1163.83 22.2984 1161.65 23.9651 1159.29 23.6308Z" fill="#111618"/>
<path d="M1201.96 41.7101C1204.25 42.0356 1206.39 40.4062 1206.72 38.0707C1207.05 35.7351 1205.45 33.5779 1203.15 33.2523C1200.86 32.9268 1198.73 34.5562 1198.39 36.8917C1198.06 39.2273 1199.66 41.3845 1201.96 41.7101Z" fill="#111618"/>
<path d="M1240.84 67.0104C1238.6 66.6934 1237.04 64.5879 1237.37 62.3135C1237.69 60.0392 1239.77 58.4489 1242.01 58.7659C1244.25 59.0829 1245.8 61.1884 1245.48 63.4628C1245.18 65.7396 1243.1 67.3299 1240.84 67.0104Z" fill="#111618"/>
<path d="M1274.84 98.7236C1272.65 98.414 1271.14 96.3693 1271.45 94.1482C1271.77 91.9272 1273.79 90.3827 1275.97 90.6923C1278.16 91.0019 1279.67 93.0467 1279.36 95.2678C1279.04 97.4888 1277.02 99.0332 1274.84 98.7236Z" fill="#111618"/>
<path d="M1302.94 135.909C1305.07 136.212 1307.05 134.699 1307.36 132.53C1307.67 130.361 1306.19 128.358 1304.05 128.056C1301.92 127.753 1299.94 129.267 1299.63 131.435C1299.32 133.604 1300.81 135.607 1302.94 135.909Z" fill="#111618"/>
<path d="M1324.33 177.436C1322.25 177.142 1320.81 175.198 1321.11 173.084C1321.41 170.969 1323.33 169.501 1325.41 169.796C1327.49 170.091 1328.93 172.034 1328.63 174.149C1328.33 176.263 1326.41 177.731 1324.33 177.436Z" fill="#111618"/>
<path d="M1342.42 219.558C1343.03 217.579 1341.94 215.481 1340 214.872C1338.05 214.263 1335.98 215.374 1335.37 217.353C1334.76 219.332 1335.85 221.43 1337.79 222.039C1339.74 222.648 1341.81 221.538 1342.42 219.558Z" fill="#111618"/>
<path d="M1344.53 268.603C1342.58 268.326 1341.21 266.484 1341.49 264.494C1341.78 262.504 1343.6 261.112 1345.56 261.389C1347.51 261.667 1348.88 263.509 1348.59 265.499C1348.31 267.489 1346.49 268.881 1344.53 268.603Z" fill="#111618"/>
<path d="M1342.72 315.508C1340.82 315.238 1339.5 313.456 1339.77 311.52C1340.05 309.583 1341.81 308.237 1343.71 308.507C1345.62 308.777 1346.94 310.559 1346.66 312.495C1346.39 314.432 1344.63 315.778 1342.72 315.508Z" fill="#111618"/>
<path d="M1333.07 361.465C1331.22 361.202 1329.95 359.464 1330.22 357.598C1330.48 355.715 1332.2 354.417 1334.04 354.678C1335.89 354.94 1337.16 356.679 1336.89 358.544C1336.63 360.41 1334.91 361.725 1333.07 361.465Z" fill="#111618"/>
<path d="M1315.78 405.071C1314 404.819 1312.76 403.138 1313.02 401.326C1313.27 399.514 1314.93 398.244 1316.72 398.497C1318.5 398.75 1319.74 400.43 1319.49 402.242C1319.23 404.055 1317.57 405.324 1315.78 405.071Z" fill="#111618"/>
<path d="M1111.2 34.1098C1113.61 34.4518 1115.85 32.7402 1116.2 30.2869C1116.55 27.8336 1114.87 25.5676 1112.46 25.2256C1110.04 24.8837 1107.8 26.5952 1107.46 29.0485C1107.11 31.5018 1108.78 33.7678 1111.2 34.1098Z" fill="#111618"/>
<path d="M1155.77 44.556C1153.44 44.2266 1151.83 42.0401 1152.16 39.677C1152.5 37.3138 1154.66 35.6623 1156.98 35.9917C1159.31 36.3211 1160.92 38.5076 1160.59 40.8708C1160.26 43.234 1158.09 44.8855 1155.77 44.556Z" fill="#111618"/>
<path d="M1197.62 63.1356C1199.85 63.4516 1201.92 61.8701 1202.24 59.6033C1202.56 57.3364 1201.01 55.2426 1198.78 54.9266C1196.55 54.6106 1194.48 56.1921 1194.16 58.459C1193.84 60.7258 1195.39 62.8196 1197.62 63.1356Z" fill="#111618"/>
<path d="M1235.29 89.2798C1233.16 88.9777 1231.66 86.9709 1231.97 84.7854C1232.28 82.6177 1234.26 81.086 1236.41 81.3907C1238.55 81.6928 1240.04 83.6996 1239.74 85.8851C1239.41 88.0681 1237.43 89.582 1235.29 89.2798Z" fill="#111618"/>
<path d="M1267.52 122.012C1265.48 121.722 1264.06 119.798 1264.35 117.72C1264.65 115.641 1266.55 114.188 1268.59 114.478C1270.64 114.768 1272.06 116.691 1271.76 118.77C1271.47 120.849 1269.59 122.304 1267.52 122.012Z" fill="#111618"/>
<path d="M1293.27 160.205C1291.31 159.927 1289.95 158.085 1290.23 156.095C1290.52 154.105 1292.34 152.714 1294.3 152.991C1296.25 153.268 1297.62 155.111 1297.33 157.101C1297.05 159.091 1295.23 160.482 1293.27 160.205Z" fill="#111618"/>
<path d="M1311.65 202.575C1309.78 202.31 1308.5 200.551 1308.76 198.667C1309.03 196.766 1310.77 195.453 1312.62 195.716C1314.48 195.978 1315.78 197.74 1315.51 199.623C1315.25 201.507 1313.52 202.84 1311.65 202.575Z" fill="#111618"/>
<path d="M1321.98 247.664C1323.75 247.916 1325.4 246.656 1325.66 244.85C1325.91 243.045 1324.68 241.377 1322.9 241.125C1321.13 240.873 1319.48 242.133 1319.22 243.939C1318.97 245.744 1320.2 247.412 1321.98 247.664Z" fill="#111618"/>
<path d="M1323.87 293.969C1322.19 293.732 1321.03 292.153 1321.27 290.447C1321.51 288.741 1323.07 287.548 1324.75 287.786C1326.43 288.024 1327.59 289.603 1327.35 291.309C1327.11 293.014 1325.55 294.207 1323.87 293.969Z" fill="#111618"/>
<path d="M1317.37 339.865C1315.78 339.64 1314.67 338.141 1314.9 336.525C1315.13 334.908 1316.61 333.776 1318.2 334.001C1319.79 334.227 1320.9 335.725 1320.67 337.342C1320.44 338.959 1318.96 340.09 1317.37 339.865Z" fill="#111618"/>
<path d="M1302.69 383.805C1301.19 383.592 1300.16 382.177 1300.37 380.667C1300.59 379.139 1301.99 378.086 1303.47 378.297C1304.98 378.51 1306.01 379.924 1305.79 381.435C1305.58 382.945 1304.2 384.018 1302.69 383.805Z" fill="#111618"/>
<path d="M1280.25 424.27C1278.83 424.07 1277.86 422.754 1278.06 421.315C1278.27 419.875 1279.57 418.881 1280.98 419.082C1282.4 419.283 1283.37 420.598 1283.17 422.038C1282.97 423.459 1281.66 424.471 1280.25 424.27Z" fill="#111618"/>
<path d="M1107.8 58.0971C1110.21 58.4391 1112.45 56.7275 1112.8 54.2742C1113.15 51.8209 1111.47 49.5549 1109.06 49.213C1106.64 48.871 1104.41 50.5825 1104.06 53.0358C1103.71 55.4891 1105.39 57.7552 1107.8 58.0971Z" fill="#111618"/>
<path d="M1150.58 68.1259C1148.37 67.8138 1146.86 65.7513 1147.18 63.5303C1147.5 61.2914 1149.53 59.7495 1151.72 60.0591C1153.9 60.3687 1155.43 62.4337 1155.12 64.6547C1154.82 66.8782 1152.78 68.438 1150.58 68.1259Z" fill="#111618"/>
<path d="M1190.48 86.4483C1188.51 86.1684 1187.13 84.3059 1187.41 82.298C1187.7 80.2902 1189.54 78.8834 1191.51 79.1633C1193.49 79.4431 1194.87 81.3057 1194.58 83.3135C1194.3 85.3214 1192.46 86.7282 1190.48 86.4483Z" fill="#111618"/>
<path d="M1225.94 112.351C1227.7 112.6 1229.33 111.354 1229.58 109.568C1229.84 107.782 1228.62 106.133 1226.86 105.884C1225.1 105.635 1223.47 106.881 1223.22 108.667C1222.97 110.453 1224.19 112.102 1225.94 112.351Z" fill="#111618"/>
<path d="M1255.66 144.8C1254.13 144.582 1253.05 143.124 1253.27 141.561C1253.49 139.997 1254.93 138.896 1256.47 139.114C1258.01 139.332 1259.09 140.79 1258.86 142.353C1258.64 143.917 1257.2 145.018 1255.66 144.8Z" fill="#111618"/>
<path d="M1278.5 182.491C1277.18 182.303 1276.26 181.068 1276.45 179.717C1276.65 178.367 1277.87 177.434 1279.19 177.623C1280.52 177.811 1281.44 179.046 1281.25 180.396C1281.05 181.747 1279.83 182.679 1278.5 182.491Z" fill="#111618"/>
<path d="M1293.58 223.994C1292.48 223.838 1291.7 222.803 1291.86 221.666C1292.02 220.547 1293.04 219.749 1294.16 219.907C1295.26 220.063 1296.04 221.098 1295.88 222.236C1295.72 223.373 1294.68 224.15 1293.58 223.994Z" fill="#111618"/>
<path d="M1300.27 267.716C1299.38 267.589 1298.76 266.759 1298.89 265.853C1299.02 264.947 1299.84 264.32 1300.73 264.446C1301.62 264.573 1302.24 265.403 1302.11 266.309C1301.98 267.215 1301.16 267.842 1300.27 267.716Z" fill="#111618"/>
<path d="M1298.32 311.936C1298.99 312.031 1299.6 311.558 1299.7 310.881C1299.79 310.204 1299.33 309.579 1298.67 309.484C1298 309.39 1297.38 309.862 1297.29 310.539C1297.19 311.217 1297.65 311.842 1298.32 311.936Z" fill="#111618"/>
</g>
<g opacity="0.5">
<path d="M5.61023 11.01C6.78107 11.01 7.73029 10.0609 7.73029 8.89001C7.73029 7.71917 6.78107 6.77002 5.61023 6.77002C4.43939 6.77002 3.49023 7.71917 3.49023 8.89001C3.49023 10.0609 4.43939 11.01 5.61023 11.01Z" fill="#111618"/>
<path d="M24.7098 11.01C25.8807 11.01 26.8298 10.0609 26.8298 8.89001C26.8298 7.71917 25.8807 6.77002 24.7098 6.77002C23.539 6.77002 22.5898 7.71917 22.5898 8.89001C22.5898 10.0609 23.539 11.01 24.7098 11.01Z" fill="#111618"/>
<path d="M43.8099 11.01C44.9808 11.01 45.9299 10.0609 45.9299 8.89001C45.9299 7.71917 44.9808 6.77002 43.8099 6.77002C42.6391 6.77002 41.6899 7.71917 41.6899 8.89001C41.6899 10.0609 42.6391 11.01 43.8099 11.01Z" fill="#111618"/>
<path d="M62.91 11.01C64.0809 11.01 65.03 10.0609 65.03 8.89001C65.03 7.71917 64.0809 6.77002 62.91 6.77002C61.7392 6.77002 60.79 7.71917 60.79 8.89001C60.79 10.0609 61.7392 11.01 62.91 11.01Z" fill="#111618"/>
<path d="M82.0101 11.01C83.181 11.01 84.1301 10.0609 84.1301 8.89001C84.1301 7.71917 83.181 6.77002 82.0101 6.77002C80.8393 6.77002 79.8901 7.71917 79.8901 8.89001C79.8901 10.0609 80.8393 11.01 82.0101 11.01Z" fill="#111618"/>
<path d="M101.11 11.01C102.281 11.01 103.23 10.0609 103.23 8.89001C103.23 7.71917 102.281 6.77002 101.11 6.77002C99.9394 6.77002 98.9902 7.71917 98.9902 8.89001C98.9902 10.0609 99.9394 11.01 101.11 11.01Z" fill="#111618"/>
<path d="M7.73999 25.86C7.73999 27.03 6.79 27.98 5.62 27.98C4.45 27.98 3.5 27.03 3.5 25.86C3.5 24.69 4.45 23.74 5.62 23.74C6.78 23.74 7.73999 24.69 7.73999 25.86Z" fill="#111618"/>
<path d="M26.8298 25.86C26.8298 27.03 25.8798 27.98 24.7098 27.98C23.5398 27.98 22.5898 27.03 22.5898 25.86C22.5898 24.69 23.5398 23.74 24.7098 23.74C25.8798 23.74 26.8298 24.69 26.8298 25.86Z" fill="#111618"/>
<path d="M45.9299 25.86C45.9299 27.03 44.9799 27.98 43.8099 27.98C42.6399 27.98 41.6899 27.03 41.6899 25.86C41.6899 24.69 42.6399 23.74 43.8099 23.74C44.9799 23.74 45.9299 24.69 45.9299 25.86Z" fill="#111618"/>
<path d="M65.03 25.86C65.03 27.03 64.08 27.98 62.91 27.98C61.74 27.98 60.79 27.03 60.79 25.86C60.79 24.69 61.74 23.74 62.91 23.74C64.08 23.74 65.03 24.69 65.03 25.86Z" fill="#111618"/>
<path d="M84.1301 25.86C84.1301 27.03 83.1801 27.98 82.0101 27.98C80.8401 27.98 79.8901 27.03 79.8901 25.86C79.8901 24.69 80.8401 23.74 82.0101 23.74C83.1801 23.74 84.1301 24.69 84.1301 25.86Z" fill="#111618"/>
<path d="M103.23 25.86C103.23 27.03 102.28 27.98 101.11 27.98C99.9402 27.98 98.9902 27.03 98.9902 25.86C98.9902 24.69 99.9402 23.74 101.11 23.74C102.28 23.74 103.23 24.69 103.23 25.86Z" fill="#111618"/>
</g>
</g>
<defs>
<clipPath id="clip0_169_17">
<rect width="1440" height="432" fill="white"/>
</clipPath>
</defs>
</svg>
