<svg width="1440" height="598" viewBox="0 0 1440 598" fill="none" xmlns="http://www.w3.org/2000/svg">
<g clip-path="url(#clip0_181_533)">
<path d="M-124.703 613.973C-102.988 644.89 -66.328 662.55 -21.4874 663.709L-20.8107 661.67C-112.202 659.323 -163.116 586.833 -134.315 500.067C-120.363 458.035 -90.0068 418.963 -48.8476 390.054C-7.68844 361.145 39.3764 345.84 83.6383 346.984L84.315 344.945C39.4644 343.793 -8.19543 359.295 -49.8954 388.583C-91.5954 417.872 -122.343 457.452 -136.483 500.026C-150.602 542.585 -146.419 583.055 -124.703 613.973Z" fill="#234361"/>
<path d="M-113.898 606.383C-94.5081 633.989 -60.9536 651.635 -17.8544 652.742L-17.1777 650.703C-102.188 648.52 -149.556 581.079 -122.771 500.363C-95.9807 419.655 -5.00989 355.761 80.0006 357.944L80.6773 355.905C-5.52105 353.691 -97.7537 418.472 -124.928 500.315C-138.501 541.226 -133.282 578.785 -113.898 606.383Z" fill="#234361"/>
<path d="M-103.223 598.885C-84.4954 625.548 -52.8795 640.774 -14.2068 641.775L-13.5301 639.736C-51.634 638.758 -82.769 623.748 -101.214 597.486C-119.665 571.216 -123.21 536.829 -111.207 500.667C-99.1988 464.492 -73.072 430.873 -37.6511 405.995C-2.22012 381.11 38.2741 367.947 76.3628 368.925L77.0395 366.887C38.3721 365.893 -2.74235 379.259 -38.7041 404.517C-74.6658 429.775 -101.179 463.909 -113.374 500.626C-125.545 537.315 -121.95 572.222 -103.223 598.885Z" fill="#234361"/>
<path d="M-92.4174 591.296C-75.8963 614.818 -47.2978 629.858 -10.5645 630.801L-9.8878 628.762C-82.1665 626.906 -122.437 569.571 -99.6588 500.95C-76.8808 432.329 0.450453 378.014 72.7292 379.871L73.4059 377.832C-0.0607259 375.945 -78.6638 431.153 -101.806 500.895C-113.382 535.769 -108.939 567.774 -92.4174 591.296Z" fill="#234361"/>
<path d="M-81.6811 583.756C-66.5941 605.236 -40.476 618.98 -6.92564 619.842L-6.24892 617.803C-72.1618 616.11 -108.881 563.831 -88.1035 501.261C-67.3317 438.684 3.17972 389.159 69.0825 390.86L69.7592 388.821C2.67374 387.098 -69.1195 437.523 -90.2609 501.213C-100.834 533.044 -96.768 562.276 -81.6811 583.756Z" fill="#234361"/>
<path d="M-70.9463 576.215C-57.2882 595.661 -33.6458 608.095 -3.29361 608.874L-2.61689 606.836C-62.1486 605.306 -95.3212 558.076 -76.5603 501.558C-67.4702 474.173 -47.6933 448.718 -20.8747 429.881C5.94388 411.045 36.5994 401.078 65.4439 401.819L66.1206 399.78C36.7074 399.017 5.43686 409.194 -21.9125 428.404C-49.2618 447.613 -69.44 473.583 -78.7077 501.502C-88.2729 530.318 -84.6044 556.77 -70.9463 576.215Z" fill="#234361"/>
<path d="M-60.2102 568.675C-47.9862 586.079 -26.8294 597.209 0.355039 597.907L1.03176 595.869C-52.1341 594.503 -81.7552 552.33 -65.0005 501.854C-48.2458 451.379 8.63599 411.427 61.8018 412.793L62.4785 410.754C8.12483 409.358 -50.0288 450.203 -67.1579 501.806C-75.7152 527.586 -72.4341 551.271 -60.2102 568.675Z" fill="#234361"/>
<path d="M116.543 375.564L113.783 383.9L119.552 379.848L116.543 375.564Z" fill="#234361"/>
<path d="M110.973 367.634L103.078 391.419L108.846 387.367L113.977 371.911L110.973 367.634Z" fill="#234361"/>
<path d="M94.2955 343.889L71.062 413.906L76.7402 409.918L97.2576 348.107L94.2955 343.889Z" fill="#234361"/>
<path d="M99.8234 351.76L81.6773 406.45L87.4456 402.399L102.827 356.037L99.8234 351.76Z" fill="#234361"/>
<path d="M105.398 359.697L92.3727 398.938L98.151 394.88L108.402 363.974L105.398 359.697Z" fill="#234361"/>
<path d="M1192.12 15.12C1193.29 15.12 1194.24 14.1708 1194.24 13C1194.24 11.8292 1193.29 10.88 1192.12 10.88C1190.95 10.88 1190 11.8292 1190 13C1190 14.1708 1190.95 15.12 1192.12 15.12Z" fill="#234361"/>
<path d="M1211.22 15.12C1212.39 15.12 1213.34 14.1708 1213.34 13C1213.34 11.8292 1212.39 10.88 1211.22 10.88C1210.05 10.88 1209.1 11.8292 1209.1 13C1209.1 14.1708 1210.05 15.12 1211.22 15.12Z" fill="#234361"/>
<path d="M1230.32 15.12C1231.49 15.12 1232.44 14.1708 1232.44 13C1232.44 11.8292 1231.49 10.88 1230.32 10.88C1229.15 10.88 1228.2 11.8292 1228.2 13C1228.2 14.1708 1229.15 15.12 1230.32 15.12Z" fill="#234361"/>
<path d="M1249.42 15.12C1250.59 15.12 1251.54 14.1708 1251.54 13C1251.54 11.8292 1250.59 10.88 1249.42 10.88C1248.25 10.88 1247.3 11.8292 1247.3 13C1247.3 14.1708 1248.25 15.12 1249.42 15.12Z" fill="#234361"/>
<path d="M1270.64 13C1270.64 14.17 1269.69 15.12 1268.52 15.12C1267.35 15.12 1266.4 14.17 1266.4 13C1266.4 11.83 1267.35 10.88 1268.52 10.88C1269.69 10.88 1270.64 11.83 1270.64 13Z" fill="#234361"/>
<path d="M1287.61 15.12C1288.78 15.12 1289.73 14.1708 1289.73 13C1289.73 11.8292 1288.78 10.88 1287.61 10.88C1286.44 10.88 1285.49 11.8292 1285.49 13C1285.49 14.1708 1286.44 15.12 1287.61 15.12Z" fill="#234361"/>
<path d="M1306.71 15.12C1307.88 15.12 1308.83 14.1708 1308.83 13C1308.83 11.8292 1307.88 10.88 1306.71 10.88C1305.54 10.88 1304.59 11.8292 1304.59 13C1304.59 14.1708 1305.54 15.12 1306.71 15.12Z" fill="#234361"/>
<path d="M1325.81 15.12C1326.98 15.12 1327.93 14.1708 1327.93 13C1327.93 11.8292 1326.98 10.88 1325.81 10.88C1324.64 10.88 1323.69 11.8292 1323.69 13C1323.69 14.1708 1324.64 15.12 1325.81 15.12Z" fill="#234361"/>
<path d="M1344.91 15.12C1346.08 15.12 1347.03 14.1708 1347.03 13C1347.03 11.8292 1346.08 10.88 1344.91 10.88C1343.74 10.88 1342.79 11.8292 1342.79 13C1342.79 14.1708 1343.74 15.12 1344.91 15.12Z" fill="#234361"/>
<path d="M1364.01 15.12C1365.18 15.12 1366.13 14.1708 1366.13 13C1366.13 11.8292 1365.18 10.88 1364.01 10.88C1362.84 10.88 1361.89 11.8292 1361.89 13C1361.89 14.1708 1362.84 15.12 1364.01 15.12Z" fill="#234361"/>
<path d="M1383.11 15.12C1384.28 15.12 1385.23 14.1708 1385.23 13C1385.23 11.8292 1384.28 10.88 1383.11 10.88C1381.94 10.88 1380.99 11.8292 1380.99 13C1380.99 14.1708 1381.94 15.12 1383.11 15.12Z" fill="#234361"/>
<path d="M1192.12 32.1C1193.29 32.1 1194.24 31.1508 1194.24 29.98C1194.24 28.8091 1193.29 27.86 1192.12 27.86C1190.95 27.86 1190 28.8091 1190 29.98C1190 31.1508 1190.95 32.1 1192.12 32.1Z" fill="#234361"/>
<path d="M1211.22 32.1C1212.39 32.1 1213.34 31.1508 1213.34 29.98C1213.34 28.8091 1212.39 27.86 1211.22 27.86C1210.05 27.86 1209.1 28.8091 1209.1 29.98C1209.1 31.1508 1210.05 32.1 1211.22 32.1Z" fill="#234361"/>
<path d="M1230.32 32.1C1231.49 32.1 1232.44 31.1508 1232.44 29.98C1232.44 28.8091 1231.49 27.86 1230.32 27.86C1229.15 27.86 1228.2 28.8091 1228.2 29.98C1228.2 31.1508 1229.15 32.1 1230.32 32.1Z" fill="#234361"/>
<path d="M1249.42 32.1C1250.59 32.1 1251.54 31.1508 1251.54 29.98C1251.54 28.8091 1250.59 27.86 1249.42 27.86C1248.25 27.86 1247.3 28.8091 1247.3 29.98C1247.3 31.1508 1248.25 32.1 1249.42 32.1Z" fill="#234361"/>
<path d="M1270.64 29.98C1270.64 31.15 1269.69 32.1 1268.52 32.1C1267.35 32.1 1266.4 31.15 1266.4 29.98C1266.4 28.81 1267.35 27.86 1268.52 27.86C1269.69 27.86 1270.64 28.81 1270.64 29.98Z" fill="#234361"/>
<path d="M1287.61 32.1C1288.78 32.1 1289.73 31.1508 1289.73 29.98C1289.73 28.8091 1288.78 27.86 1287.61 27.86C1286.44 27.86 1285.49 28.8091 1285.49 29.98C1285.49 31.1508 1286.44 32.1 1287.61 32.1Z" fill="#234361"/>
<path d="M1306.71 32.1C1307.88 32.1 1308.83 31.1508 1308.83 29.98C1308.83 28.8091 1307.88 27.86 1306.71 27.86C1305.54 27.86 1304.59 28.8091 1304.59 29.98C1304.59 31.1508 1305.54 32.1 1306.71 32.1Z" fill="#234361"/>
<path d="M1325.81 32.1C1326.98 32.1 1327.93 31.1508 1327.93 29.98C1327.93 28.8091 1326.98 27.86 1325.81 27.86C1324.64 27.86 1323.69 28.8091 1323.69 29.98C1323.69 31.1508 1324.64 32.1 1325.81 32.1Z" fill="#234361"/>
<path d="M1344.91 32.1C1346.08 32.1 1347.03 31.1508 1347.03 29.98C1347.03 28.8091 1346.08 27.86 1344.91 27.86C1343.74 27.86 1342.79 28.8091 1342.79 29.98C1342.79 31.1508 1343.74 32.1 1344.91 32.1Z" fill="#234361"/>
<path d="M1364.01 32.1C1365.18 32.1 1366.13 31.1508 1366.13 29.98C1366.13 28.8091 1365.18 27.86 1364.01 27.86C1362.84 27.86 1361.89 28.8091 1361.89 29.98C1361.89 31.1508 1362.84 32.1 1364.01 32.1Z" fill="#234361"/>
<path d="M1383.11 32.1C1384.28 32.1 1385.23 31.1508 1385.23 29.98C1385.23 28.8091 1384.28 27.86 1383.11 27.86C1381.94 27.86 1380.99 28.8091 1380.99 29.98C1380.99 31.1508 1381.94 32.1 1383.11 32.1Z" fill="#234361"/>
<path d="M1194.24 46.96C1194.24 48.13 1193.29 49.08 1192.12 49.08C1190.95 49.08 1190 48.13 1190 46.96C1190 45.79 1190.95 44.84 1192.12 44.84C1193.29 44.83 1194.24 45.78 1194.24 46.96Z" fill="#234361"/>
<path d="M1213.34 46.96C1213.34 48.13 1212.39 49.08 1211.22 49.08C1210.05 49.08 1209.1 48.13 1209.1 46.96C1209.1 45.79 1210.05 44.84 1211.22 44.84C1212.39 44.83 1213.34 45.78 1213.34 46.96Z" fill="#234361"/>
<path d="M1232.44 46.96C1232.44 48.13 1231.49 49.08 1230.32 49.08C1229.15 49.08 1228.2 48.13 1228.2 46.96C1228.2 45.79 1229.15 44.84 1230.32 44.84C1231.49 44.83 1232.44 45.78 1232.44 46.96Z" fill="#234361"/>
<path d="M1251.54 46.96C1251.54 48.13 1250.59 49.08 1249.42 49.08C1248.25 49.08 1247.3 48.13 1247.3 46.96C1247.3 45.79 1248.25 44.84 1249.42 44.84C1250.59 44.83 1251.54 45.78 1251.54 46.96Z" fill="#234361"/>
<path d="M1270.64 46.96C1270.64 48.13 1269.69 49.08 1268.52 49.08C1267.35 49.08 1266.4 48.13 1266.4 46.96C1266.4 45.79 1267.35 44.84 1268.52 44.84C1269.69 44.83 1270.64 45.78 1270.64 46.96Z" fill="#234361"/>
<path d="M1289.74 46.96C1289.74 48.13 1288.79 49.08 1287.62 49.08C1286.45 49.08 1285.5 48.13 1285.5 46.96C1285.5 45.79 1286.45 44.84 1287.62 44.84C1288.78 44.83 1289.74 45.78 1289.74 46.96Z" fill="#234361"/>
<path d="M1308.83 46.96C1308.83 48.13 1307.88 49.08 1306.71 49.08C1305.54 49.08 1304.59 48.13 1304.59 46.96C1304.59 45.79 1305.54 44.84 1306.71 44.84C1307.88 44.83 1308.83 45.78 1308.83 46.96Z" fill="#234361"/>
<path d="M1327.93 46.9601C1327.93 48.1301 1326.98 49.0801 1325.81 49.0801C1324.64 49.0801 1323.69 48.1301 1323.69 46.9601C1323.69 45.7901 1324.64 44.8401 1325.81 44.8401C1326.98 44.8401 1327.93 45.7801 1327.93 46.9601Z" fill="#234361"/>
<path d="M1347.03 46.96C1347.03 48.13 1346.08 49.08 1344.91 49.08C1343.74 49.08 1342.79 48.13 1342.79 46.96C1342.79 45.79 1343.74 44.84 1344.91 44.84C1346.08 44.83 1347.03 45.78 1347.03 46.96Z" fill="#234361"/>
<path d="M1366.13 46.96C1366.13 48.13 1365.18 49.08 1364.01 49.08C1362.84 49.08 1361.89 48.13 1361.89 46.96C1361.89 45.79 1362.84 44.84 1364.01 44.84C1365.18 44.83 1366.13 45.78 1366.13 46.96Z" fill="#234361"/>
<path d="M1385.23 46.96C1385.23 48.13 1384.28 49.08 1383.11 49.08C1381.94 49.08 1380.99 48.13 1380.99 46.96C1380.99 45.79 1381.94 44.84 1383.11 44.84C1384.28 44.83 1385.23 45.78 1385.23 46.96Z" fill="#234361"/>
<path d="M1194.24 63.9301C1194.24 65.1001 1193.29 66.05 1192.12 66.05C1190.95 66.05 1190 65.1001 1190 63.9301C1190 62.7601 1190.95 61.8101 1192.12 61.8101C1193.29 61.8101 1194.24 62.7601 1194.24 63.9301Z" fill="#234361"/>
<path d="M1213.34 63.9301C1213.34 65.1001 1212.39 66.05 1211.22 66.05C1210.05 66.05 1209.1 65.1001 1209.1 63.9301C1209.1 62.7601 1210.05 61.8101 1211.22 61.8101C1212.39 61.8101 1213.34 62.7601 1213.34 63.9301Z" fill="#234361"/>
<path d="M1232.44 63.9301C1232.44 65.1001 1231.49 66.05 1230.32 66.05C1229.15 66.05 1228.2 65.1001 1228.2 63.9301C1228.2 62.7601 1229.15 61.8101 1230.32 61.8101C1231.49 61.8101 1232.44 62.7601 1232.44 63.9301Z" fill="#234361"/>
<path d="M1251.54 63.9301C1251.54 65.1001 1250.59 66.05 1249.42 66.05C1248.25 66.05 1247.3 65.1001 1247.3 63.9301C1247.3 62.7601 1248.25 61.8101 1249.42 61.8101C1250.59 61.8101 1251.54 62.7601 1251.54 63.9301Z" fill="#234361"/>
<path d="M1270.64 63.9301C1270.64 65.1001 1269.69 66.05 1268.52 66.05C1267.35 66.05 1266.4 65.1001 1266.4 63.9301C1266.4 62.7601 1267.35 61.8101 1268.52 61.8101C1269.69 61.8101 1270.64 62.7601 1270.64 63.9301Z" fill="#234361"/>
<path d="M1289.74 63.9301C1289.74 65.1001 1288.79 66.05 1287.62 66.05C1286.45 66.05 1285.5 65.1001 1285.5 63.9301C1285.5 62.7601 1286.45 61.8101 1287.62 61.8101C1288.78 61.8101 1289.74 62.7601 1289.74 63.9301Z" fill="#234361"/>
<path d="M1308.83 63.9301C1308.83 65.1001 1307.88 66.05 1306.71 66.05C1305.54 66.05 1304.59 65.1001 1304.59 63.9301C1304.59 62.7601 1305.54 61.8101 1306.71 61.8101C1307.88 61.8101 1308.83 62.7601 1308.83 63.9301Z" fill="#234361"/>
<path d="M1327.93 63.9301C1327.93 65.1001 1326.98 66.05 1325.81 66.05C1324.64 66.05 1323.69 65.1001 1323.69 63.9301C1323.69 62.7601 1324.64 61.8101 1325.81 61.8101C1326.98 61.8101 1327.93 62.7601 1327.93 63.9301Z" fill="#234361"/>
<path d="M1347.03 63.9301C1347.03 65.1001 1346.08 66.05 1344.91 66.05C1343.74 66.05 1342.79 65.1001 1342.79 63.9301C1342.79 62.7601 1343.74 61.8101 1344.91 61.8101C1346.08 61.8101 1347.03 62.7601 1347.03 63.9301Z" fill="#234361"/>
<path d="M1366.13 63.9301C1366.13 65.1001 1365.18 66.05 1364.01 66.05C1362.84 66.05 1361.89 65.1001 1361.89 63.9301C1361.89 62.7601 1362.84 61.8101 1364.01 61.8101C1365.18 61.8101 1366.13 62.7601 1366.13 63.9301Z" fill="#234361"/>
<path d="M1385.23 63.9301C1385.23 65.1001 1384.28 66.05 1383.11 66.05C1381.94 66.05 1380.99 65.1001 1380.99 63.9301C1380.99 62.7601 1381.94 61.8101 1383.11 61.8101C1384.28 61.8101 1385.23 62.7601 1385.23 63.9301Z" fill="#234361"/>
<path d="M1192.12 83.03C1193.29 83.03 1194.24 82.0809 1194.24 80.91C1194.24 79.7392 1193.29 78.79 1192.12 78.79C1190.95 78.79 1190 79.7392 1190 80.91C1190 82.0809 1190.95 83.03 1192.12 83.03Z" fill="#234361"/>
<path d="M1211.22 83.03C1212.39 83.03 1213.34 82.0809 1213.34 80.91C1213.34 79.7392 1212.39 78.79 1211.22 78.79C1210.05 78.79 1209.1 79.7392 1209.1 80.91C1209.1 82.0809 1210.05 83.03 1211.22 83.03Z" fill="#234361"/>
<path d="M1230.32 83.03C1231.49 83.03 1232.44 82.0809 1232.44 80.91C1232.44 79.7392 1231.49 78.79 1230.32 78.79C1229.15 78.79 1228.2 79.7392 1228.2 80.91C1228.2 82.0809 1229.15 83.03 1230.32 83.03Z" fill="#234361"/>
<path d="M1249.42 83.03C1250.59 83.03 1251.54 82.0809 1251.54 80.91C1251.54 79.7392 1250.59 78.79 1249.42 78.79C1248.25 78.79 1247.3 79.7392 1247.3 80.91C1247.3 82.0809 1248.25 83.03 1249.42 83.03Z" fill="#234361"/>
<path d="M1270.64 80.91C1270.64 82.08 1269.69 83.03 1268.52 83.03C1267.35 83.03 1266.4 82.08 1266.4 80.91C1266.4 79.74 1267.35 78.79 1268.52 78.79C1269.69 78.79 1270.64 79.74 1270.64 80.91Z" fill="#234361"/>
<path d="M1287.61 83.03C1288.78 83.03 1289.73 82.0809 1289.73 80.91C1289.73 79.7392 1288.78 78.79 1287.61 78.79C1286.44 78.79 1285.49 79.7392 1285.49 80.91C1285.49 82.0809 1286.44 83.03 1287.61 83.03Z" fill="#234361"/>
<path d="M1306.71 83.03C1307.88 83.03 1308.83 82.0809 1308.83 80.91C1308.83 79.7392 1307.88 78.79 1306.71 78.79C1305.54 78.79 1304.59 79.7392 1304.59 80.91C1304.59 82.0809 1305.54 83.03 1306.71 83.03Z" fill="#234361"/>
<path d="M1325.81 83.03C1326.98 83.03 1327.93 82.0809 1327.93 80.91C1327.93 79.7392 1326.98 78.79 1325.81 78.79C1324.64 78.79 1323.69 79.7392 1323.69 80.91C1323.69 82.0809 1324.64 83.03 1325.81 83.03Z" fill="#234361"/>
<path d="M1344.91 83.03C1346.08 83.03 1347.03 82.0809 1347.03 80.91C1347.03 79.7392 1346.08 78.79 1344.91 78.79C1343.74 78.79 1342.79 79.7392 1342.79 80.91C1342.79 82.0809 1343.74 83.03 1344.91 83.03Z" fill="#234361"/>
<path d="M1364.01 83.03C1365.18 83.03 1366.13 82.0809 1366.13 80.91C1366.13 79.7392 1365.18 78.79 1364.01 78.79C1362.84 78.79 1361.89 79.7392 1361.89 80.91C1361.89 82.0809 1362.84 83.03 1364.01 83.03Z" fill="#234361"/>
<path d="M1383.11 83.03C1384.28 83.03 1385.23 82.0809 1385.23 80.91C1385.23 79.7392 1384.28 78.79 1383.11 78.79C1381.94 78.79 1380.99 79.7392 1380.99 80.91C1380.99 82.0809 1381.94 83.03 1383.11 83.03Z" fill="#234361"/>
<path d="M1192.12 100.01C1193.29 100.01 1194.24 99.0609 1194.24 97.89C1194.24 96.7192 1193.29 95.77 1192.12 95.77C1190.95 95.77 1190 96.7192 1190 97.89C1190 99.0609 1190.95 100.01 1192.12 100.01Z" fill="#234361"/>
<path d="M1211.22 100.01C1212.39 100.01 1213.34 99.0609 1213.34 97.89C1213.34 96.7192 1212.39 95.77 1211.22 95.77C1210.05 95.77 1209.1 96.7192 1209.1 97.89C1209.1 99.0609 1210.05 100.01 1211.22 100.01Z" fill="#234361"/>
<path d="M1230.32 100.01C1231.49 100.01 1232.44 99.0609 1232.44 97.89C1232.44 96.7192 1231.49 95.77 1230.32 95.77C1229.15 95.77 1228.2 96.7192 1228.2 97.89C1228.2 99.0609 1229.15 100.01 1230.32 100.01Z" fill="#234361"/>
<path d="M1249.42 100.01C1250.59 100.01 1251.54 99.0609 1251.54 97.89C1251.54 96.7192 1250.59 95.77 1249.42 95.77C1248.25 95.77 1247.3 96.7192 1247.3 97.89C1247.3 99.0609 1248.25 100.01 1249.42 100.01Z" fill="#234361"/>
<path d="M1270.64 97.89C1270.64 99.06 1269.69 100.01 1268.52 100.01C1267.35 100.01 1266.4 99.06 1266.4 97.89C1266.4 96.72 1267.35 95.77 1268.52 95.77C1269.69 95.76 1270.64 96.71 1270.64 97.89Z" fill="#234361"/>
<path d="M1287.61 100.01C1288.78 100.01 1289.73 99.0609 1289.73 97.89C1289.73 96.7192 1288.78 95.77 1287.61 95.77C1286.44 95.77 1285.49 96.7192 1285.49 97.89C1285.49 99.0609 1286.44 100.01 1287.61 100.01Z" fill="#234361"/>
<path d="M1306.71 100.01C1307.88 100.01 1308.83 99.0609 1308.83 97.89C1308.83 96.7192 1307.88 95.77 1306.71 95.77C1305.54 95.77 1304.59 96.7192 1304.59 97.89C1304.59 99.0609 1305.54 100.01 1306.71 100.01Z" fill="#234361"/>
<path d="M1325.81 100.01C1326.98 100.01 1327.93 99.0609 1327.93 97.89C1327.93 96.7192 1326.98 95.77 1325.81 95.77C1324.64 95.77 1323.69 96.7192 1323.69 97.89C1323.69 99.0609 1324.64 100.01 1325.81 100.01Z" fill="#234361"/>
<path d="M1344.91 100.01C1346.08 100.01 1347.03 99.0609 1347.03 97.89C1347.03 96.7192 1346.08 95.77 1344.91 95.77C1343.74 95.77 1342.79 96.7192 1342.79 97.89C1342.79 99.0609 1343.74 100.01 1344.91 100.01Z" fill="#234361"/>
<path d="M1364.01 100.01C1365.18 100.01 1366.13 99.0609 1366.13 97.89C1366.13 96.7192 1365.18 95.77 1364.01 95.77C1362.84 95.77 1361.89 96.7192 1361.89 97.89C1361.89 99.0609 1362.84 100.01 1364.01 100.01Z" fill="#234361"/>
<path d="M1383.11 100.01C1384.28 100.01 1385.23 99.0609 1385.23 97.89C1385.23 96.7192 1384.28 95.77 1383.11 95.77C1381.94 95.77 1380.99 96.7192 1380.99 97.89C1380.99 99.0609 1381.94 100.01 1383.11 100.01Z" fill="#234361"/>
<path d="M1194.24 114.86C1194.24 116.03 1193.29 116.98 1192.12 116.98C1190.95 116.98 1190 116.03 1190 114.86C1190 113.69 1190.95 112.74 1192.12 112.74C1193.29 112.74 1194.24 113.69 1194.24 114.86Z" fill="#234361"/>
<path d="M1213.34 114.86C1213.34 116.03 1212.39 116.98 1211.22 116.98C1210.05 116.98 1209.1 116.03 1209.1 114.86C1209.1 113.69 1210.05 112.74 1211.22 112.74C1212.39 112.74 1213.34 113.69 1213.34 114.86Z" fill="#234361"/>
<path d="M1232.44 114.86C1232.44 116.03 1231.49 116.98 1230.32 116.98C1229.15 116.98 1228.2 116.03 1228.2 114.86C1228.2 113.69 1229.15 112.74 1230.32 112.74C1231.49 112.74 1232.44 113.69 1232.44 114.86Z" fill="#234361"/>
<path d="M1251.54 114.86C1251.54 116.03 1250.59 116.98 1249.42 116.98C1248.25 116.98 1247.3 116.03 1247.3 114.86C1247.3 113.69 1248.25 112.74 1249.42 112.74C1250.59 112.74 1251.54 113.69 1251.54 114.86Z" fill="#234361"/>
<path d="M1270.64 114.86C1270.64 116.03 1269.69 116.98 1268.52 116.98C1267.35 116.98 1266.4 116.03 1266.4 114.86C1266.4 113.69 1267.35 112.74 1268.52 112.74C1269.69 112.74 1270.64 113.69 1270.64 114.86Z" fill="#234361"/>
<path d="M1289.74 114.86C1289.74 116.03 1288.79 116.98 1287.62 116.98C1286.45 116.98 1285.5 116.03 1285.5 114.86C1285.5 113.69 1286.45 112.74 1287.62 112.74C1288.78 112.74 1289.74 113.69 1289.74 114.86Z" fill="#234361"/>
<path d="M1308.83 114.86C1308.83 116.03 1307.88 116.98 1306.71 116.98C1305.54 116.98 1304.59 116.03 1304.59 114.86C1304.59 113.69 1305.54 112.74 1306.71 112.74C1307.88 112.74 1308.83 113.69 1308.83 114.86Z" fill="#234361"/>
<path d="M1327.93 114.86C1327.93 116.03 1326.98 116.98 1325.81 116.98C1324.64 116.98 1323.69 116.03 1323.69 114.86C1323.69 113.69 1324.64 112.74 1325.81 112.74C1326.98 112.74 1327.93 113.69 1327.93 114.86Z" fill="#234361"/>
<path d="M1347.03 114.86C1347.03 116.03 1346.08 116.98 1344.91 116.98C1343.74 116.98 1342.79 116.03 1342.79 114.86C1342.79 113.69 1343.74 112.74 1344.91 112.74C1346.08 112.74 1347.03 113.69 1347.03 114.86Z" fill="#234361"/>
<path d="M1366.13 114.86C1366.13 116.03 1365.18 116.98 1364.01 116.98C1362.84 116.98 1361.89 116.03 1361.89 114.86C1361.89 113.69 1362.84 112.74 1364.01 112.74C1365.18 112.74 1366.13 113.69 1366.13 114.86Z" fill="#234361"/>
<path d="M1385.23 114.86C1385.23 116.03 1384.28 116.98 1383.11 116.98C1381.94 116.98 1380.99 116.03 1380.99 114.86C1380.99 113.69 1381.94 112.74 1383.11 112.74C1384.28 112.74 1385.23 113.69 1385.23 114.86Z" fill="#234361"/>
</g>
<defs>
<clipPath id="clip0_181_533">
<rect width="1440" height="598" fill="white"/>
</clipPath>
</defs>
</svg>
