<svg width="1440" height="680" viewBox="0 0 1440 680" fill="none" xmlns="http://www.w3.org/2000/svg">
<g clip-path="url(#clip0_142_29)">
<g opacity="0.8">
<path d="M1114.15 13.3031C1116.56 13.6451 1118.8 11.9335 1119.15 9.48021C1119.49 7.02691 1117.82 4.76089 1115.4 4.41892C1112.99 4.07694 1110.75 5.7885 1110.4 8.2418C1110.06 10.6951 1111.73 12.9611 1114.15 13.3031Z" fill="#234361"/>
<path d="M1159.29 23.6307C1156.93 23.2963 1155.29 21.0896 1155.63 18.6909C1155.97 16.2921 1158.15 14.6254 1160.52 14.9598C1162.88 15.2941 1164.51 17.5008 1164.17 19.8996C1163.83 22.2983 1161.65 23.9651 1159.29 23.6307Z" fill="#234361"/>
<path d="M1201.96 41.7101C1204.25 42.0356 1206.39 40.4062 1206.72 38.0707C1207.05 35.7351 1205.45 33.5779 1203.15 33.2523C1200.86 32.9268 1198.73 34.5562 1198.39 36.8917C1198.06 39.2273 1199.66 41.3845 1201.96 41.7101Z" fill="#234361"/>
<path d="M1240.84 67.0104C1238.6 66.6934 1237.04 64.5879 1237.37 62.3135C1237.69 60.0392 1239.77 58.4489 1242.01 58.7659C1244.25 59.0829 1245.8 61.1884 1245.48 63.4628C1245.18 65.7396 1243.1 67.3299 1240.84 67.0104Z" fill="#234361"/>
<path d="M1274.84 98.7236C1272.65 98.414 1271.14 96.3692 1271.45 94.1482C1271.77 91.9271 1273.79 90.3827 1275.97 90.6923C1278.16 91.0019 1279.67 93.0466 1279.36 95.2677C1279.04 97.4887 1277.02 99.0332 1274.84 98.7236Z" fill="#234361"/>
<path d="M1302.94 135.909C1305.07 136.212 1307.05 134.699 1307.36 132.53C1307.67 130.361 1306.19 128.358 1304.05 128.056C1301.92 127.753 1299.94 129.266 1299.63 131.435C1299.32 133.604 1300.81 135.607 1302.94 135.909Z" fill="#234361"/>
<path d="M1324.33 177.436C1322.25 177.142 1320.81 175.198 1321.11 173.084C1321.41 170.969 1323.33 169.501 1325.41 169.796C1327.49 170.091 1328.93 172.034 1328.63 174.149C1328.33 176.263 1326.41 177.731 1324.33 177.436Z" fill="#234361"/>
<path d="M1342.42 219.558C1343.03 217.579 1341.94 215.481 1340 214.872C1338.05 214.263 1335.98 215.374 1335.37 217.353C1334.76 219.332 1335.85 221.43 1337.79 222.039C1339.74 222.648 1341.81 221.537 1342.42 219.558Z" fill="#234361"/>
<path d="M1344.53 268.603C1342.58 268.326 1341.21 266.484 1341.49 264.493C1341.78 262.503 1343.6 261.112 1345.56 261.389C1347.51 261.667 1348.88 263.509 1348.59 265.499C1348.31 267.489 1346.49 268.881 1344.53 268.603Z" fill="#234361"/>
<path d="M1342.72 315.508C1340.82 315.238 1339.5 313.456 1339.77 311.519C1340.05 309.583 1341.81 308.237 1343.71 308.507C1345.62 308.777 1346.94 310.559 1346.66 312.495C1346.39 314.432 1344.63 315.778 1342.72 315.508Z" fill="#234361"/>
<path d="M1333.07 361.465C1331.22 361.202 1329.95 359.464 1330.22 357.598C1330.48 355.715 1332.2 354.417 1334.04 354.678C1335.89 354.94 1337.16 356.679 1336.89 358.544C1336.63 360.41 1334.91 361.725 1333.07 361.465Z" fill="#234361"/>
<path d="M1315.78 405.071C1314 404.819 1312.76 403.138 1313.02 401.326C1313.27 399.514 1314.93 398.244 1316.72 398.497C1318.5 398.75 1319.74 400.43 1319.49 402.242C1319.23 404.055 1317.57 405.324 1315.78 405.071Z" fill="#234361"/>
<path d="M1291.33 445.034C1289.59 444.788 1288.4 443.169 1288.65 441.41C1288.9 439.651 1290.5 438.427 1292.23 438.673C1293.96 438.918 1295.15 440.537 1294.91 442.297C1294.66 444.038 1293.06 445.279 1291.33 445.034Z" fill="#234361"/>
<path d="M1260.47 480.139C1258.79 479.902 1257.64 478.325 1257.88 476.637C1258.13 474.931 1259.68 473.756 1261.34 473.991C1263.02 474.229 1264.17 475.806 1263.93 477.494C1263.69 479.182 1262.15 480.377 1260.47 480.139Z" fill="#234361"/>
<path d="M1224.17 509.398C1222.54 509.168 1221.42 507.649 1221.66 505.997C1221.89 504.344 1223.39 503.198 1225.02 503.428C1226.64 503.658 1227.77 505.177 1227.53 506.829C1227.28 508.479 1225.78 509.626 1224.17 509.398Z" fill="#234361"/>
<path d="M1183.49 531.946C1181.93 531.725 1180.83 530.265 1181.06 528.666C1181.29 527.067 1182.73 525.966 1184.3 526.189C1185.88 526.412 1186.95 527.869 1186.73 529.469C1186.5 531.068 1185.04 532.166 1183.49 531.946Z" fill="#234361"/>
<path d="M1139.61 547.081C1138.1 546.868 1137.06 545.451 1137.27 543.923C1137.49 542.395 1138.89 541.325 1140.39 541.538C1141.9 541.751 1142.94 543.168 1142.73 544.696C1142.51 546.224 1141.11 547.294 1139.61 547.081Z" fill="#234361"/>
<path d="M1093.84 554.3C1092.38 554.094 1091.38 552.738 1091.59 551.263C1091.8 549.788 1093.14 548.764 1094.59 548.969C1096.04 549.175 1097.04 550.531 1096.84 552.006C1096.63 553.481 1095.29 554.505 1093.84 554.3Z" fill="#234361"/>
<path d="M1047.53 553.414C1046.14 553.216 1045.18 551.92 1045.38 550.499C1045.58 549.077 1046.86 548.099 1048.26 548.297C1049.66 548.495 1050.62 549.791 1050.41 551.212C1050.21 552.634 1048.93 553.612 1047.53 553.414Z" fill="#234361"/>
<path d="M1002.08 544.529C1000.75 544.34 999.825 543.085 1000.02 541.735C1000.21 540.385 1001.45 539.436 1002.78 539.625C1004.11 539.813 1005.03 541.068 1004.84 542.419C1004.65 543.769 1003.41 544.717 1002.08 544.529Z" fill="#234361"/>
<path d="M958.82 527.852C957.544 527.671 956.661 526.477 956.845 525.179C957.028 523.882 958.208 522.98 959.485 523.161C960.761 523.342 961.644 524.536 961.46 525.833C961.277 527.13 960.097 528.033 958.82 527.852Z" fill="#234361"/>
<path d="M919.047 503.803C917.823 503.63 916.988 502.478 917.161 501.252C917.338 500.008 918.475 499.154 919.682 499.325C920.906 499.499 921.741 500.65 921.568 501.876C921.409 503.122 920.271 503.976 919.047 503.803Z" fill="#234361"/>
<path d="M883.972 473.151C882.801 472.985 882.01 471.895 882.176 470.722C882.342 469.549 883.422 468.723 884.576 468.887C885.73 469.05 886.539 470.144 886.373 471.316C886.206 472.489 885.144 473.317 883.972 473.151Z" fill="#234361"/>
<path d="M854.57 436.833C855.68 436.99 856.71 436.203 856.87 435.074C857.03 433.946 856.259 432.903 855.148 432.746C854.038 432.589 853.008 433.376 852.848 434.504C852.688 435.633 853.459 436.675 854.57 436.833Z" fill="#234361"/>
<path d="M1111.2 34.1098C1113.61 34.4518 1115.85 32.7402 1116.2 30.2869C1116.55 27.8336 1114.87 25.5676 1112.46 25.2256C1110.04 24.8836 1107.8 26.5952 1107.46 29.0485C1107.11 31.5018 1108.78 33.7678 1111.2 34.1098Z" fill="#234361"/>
<path d="M1155.77 44.556C1153.44 44.2266 1151.83 42.0401 1152.16 39.677C1152.5 37.3138 1154.66 35.6623 1156.98 35.9917C1159.31 36.3211 1160.92 38.5076 1160.59 40.8708C1160.26 43.234 1158.09 44.8855 1155.77 44.556Z" fill="#234361"/>
<path d="M1197.62 63.1355C1199.85 63.4515 1201.92 61.8701 1202.24 59.6032C1202.56 57.3364 1201.01 55.2426 1198.78 54.9266C1196.55 54.6106 1194.48 56.1921 1194.16 58.4589C1193.84 60.7258 1195.39 62.8196 1197.62 63.1355Z" fill="#234361"/>
<path d="M1235.29 89.2798C1233.16 88.9777 1231.66 86.9709 1231.97 84.7854C1232.28 82.6177 1234.26 81.086 1236.41 81.3907C1238.55 81.6928 1240.04 83.6996 1239.74 85.8851C1239.41 88.0681 1237.43 89.582 1235.29 89.2798Z" fill="#234361"/>
<path d="M1267.52 122.011C1265.48 121.722 1264.06 119.798 1264.35 117.719C1264.65 115.641 1266.55 114.188 1268.59 114.478C1270.64 114.767 1272.06 116.691 1271.76 118.77C1271.47 120.849 1269.59 122.304 1267.52 122.011Z" fill="#234361"/>
<path d="M1293.27 160.205C1291.31 159.927 1289.95 158.085 1290.23 156.095C1290.52 154.105 1292.34 152.714 1294.3 152.991C1296.25 153.268 1297.62 155.111 1297.33 157.101C1297.05 159.091 1295.23 160.482 1293.27 160.205Z" fill="#234361"/>
<path d="M1311.65 202.575C1309.78 202.309 1308.5 200.551 1308.76 198.667C1309.03 196.766 1310.77 195.453 1312.62 195.716C1314.48 195.978 1315.78 197.74 1315.51 199.623C1315.25 201.507 1313.52 202.84 1311.65 202.575Z" fill="#234361"/>
<path d="M1321.98 247.664C1323.75 247.915 1325.4 246.656 1325.66 244.85C1325.91 243.044 1324.68 241.377 1322.9 241.125C1321.13 240.873 1319.48 242.133 1319.22 243.939C1318.97 245.744 1320.2 247.412 1321.98 247.664Z" fill="#234361"/>
<path d="M1323.87 293.969C1322.19 293.732 1321.03 292.152 1321.27 290.447C1321.51 288.741 1323.07 287.548 1324.75 287.786C1326.43 288.024 1327.59 289.603 1327.35 291.309C1327.11 293.014 1325.55 294.207 1323.87 293.969Z" fill="#234361"/>
<path d="M1317.37 339.865C1315.78 339.64 1314.67 338.141 1314.9 336.525C1315.13 334.908 1316.61 333.776 1318.2 334.001C1319.79 334.227 1320.9 335.725 1320.67 337.342C1320.44 338.959 1318.96 340.09 1317.37 339.865Z" fill="#234361"/>
<path d="M1302.69 383.805C1301.19 383.592 1300.16 382.177 1300.37 380.667C1300.59 379.139 1301.99 378.086 1303.47 378.297C1304.98 378.51 1306.01 379.924 1305.79 381.435C1305.58 382.945 1304.2 384.018 1302.69 383.805Z" fill="#234361"/>
<path d="M1280.25 424.27C1278.83 424.07 1277.86 422.754 1278.06 421.314C1278.27 419.875 1279.57 418.881 1280.98 419.082C1282.4 419.283 1283.37 420.598 1283.17 422.038C1282.97 423.459 1281.66 424.471 1280.25 424.27Z" fill="#234361"/>
<path d="M1250.84 459.853C1249.53 459.667 1248.62 458.432 1248.81 457.1C1249 455.767 1250.22 454.834 1251.53 455.02C1252.84 455.206 1253.75 456.441 1253.56 457.773C1253.38 459.106 1252.16 460.039 1250.84 459.853Z" fill="#234361"/>
<path d="M1215.5 489.392C1214.28 489.219 1213.42 488.065 1213.6 486.821C1213.78 485.577 1214.92 484.706 1216.14 484.879C1217.36 485.053 1218.22 486.207 1218.04 487.45C1217.85 488.692 1216.72 489.566 1215.5 489.392Z" fill="#234361"/>
<path d="M1175.43 511.882C1174.29 511.721 1173.52 510.651 1173.68 509.514C1173.84 508.377 1174.9 507.566 1176.02 507.725C1177.16 507.886 1177.93 508.956 1177.77 510.093C1177.61 511.231 1176.57 512.043 1175.43 511.882Z" fill="#234361"/>
<path d="M1131.98 526.534C1130.93 526.386 1130.21 525.414 1130.36 524.348C1130.51 523.282 1131.47 522.548 1132.52 522.696C1133.57 522.845 1134.29 523.817 1134.14 524.883C1133.99 525.949 1133.03 526.683 1131.98 526.534Z" fill="#234361"/>
<path d="M1086.61 532.777C1087.57 532.913 1088.45 532.235 1088.59 531.263C1088.73 530.292 1088.06 529.394 1087.11 529.259C1086.15 529.124 1085.27 529.801 1085.13 530.773C1084.99 531.744 1085.65 532.642 1086.61 532.777Z" fill="#234361"/>
<path d="M1040.89 530.416C1041.75 530.537 1042.55 529.928 1042.67 529.055C1042.8 528.181 1042.2 527.374 1041.34 527.253C1040.48 527.131 1039.69 527.74 1039.56 528.614C1039.44 529.487 1040.03 530.294 1040.89 530.416Z" fill="#234361"/>
<path d="M1107.8 58.0971C1110.21 58.439 1112.45 56.7275 1112.8 54.2742C1113.15 51.8209 1111.47 49.5549 1109.06 49.2129C1106.64 48.8709 1104.41 50.5825 1104.06 53.0358C1103.71 55.4891 1105.39 57.7551 1107.8 58.0971Z" fill="#234361"/>
<path d="M1150.58 68.1259C1148.37 67.8138 1146.86 65.7513 1147.18 63.5302C1147.5 61.2914 1149.53 59.7494 1151.72 60.059C1153.9 60.3686 1155.43 62.4337 1155.12 64.6547C1154.82 66.8782 1152.78 68.438 1150.58 68.1259Z" fill="#234361"/>
<path d="M1190.48 86.4482C1188.51 86.1683 1187.13 84.3058 1187.41 82.2979C1187.7 80.2901 1189.54 78.8833 1191.51 79.1632C1193.49 79.4431 1194.87 81.3056 1194.58 83.3134C1194.3 85.3213 1192.46 86.7281 1190.48 86.4482Z" fill="#234361"/>
<path d="M1225.94 112.351C1227.7 112.6 1229.33 111.354 1229.58 109.568C1229.84 107.782 1228.62 106.133 1226.86 105.884C1225.1 105.635 1223.47 106.881 1223.22 108.667C1222.97 110.453 1224.19 112.102 1225.94 112.351Z" fill="#234361"/>
<path d="M1255.66 144.8C1254.13 144.582 1253.05 143.124 1253.27 141.561C1253.49 139.997 1254.93 138.896 1256.47 139.114C1258.01 139.332 1259.09 140.79 1258.86 142.353C1258.64 143.917 1257.2 145.018 1255.66 144.8Z" fill="#234361"/>
<path d="M1278.5 182.491C1277.18 182.303 1276.26 181.068 1276.45 179.717C1276.65 178.367 1277.87 177.434 1279.19 177.622C1280.52 177.811 1281.44 179.046 1281.25 180.396C1281.05 181.746 1279.83 182.679 1278.5 182.491Z" fill="#234361"/>
<path d="M1293.58 223.994C1292.48 223.838 1291.7 222.803 1291.86 221.666C1292.02 220.546 1293.04 219.749 1294.16 219.907C1295.26 220.063 1296.04 221.098 1295.88 222.236C1295.72 223.373 1294.68 224.15 1293.58 223.994Z" fill="#234361"/>
<path d="M1300.27 267.716C1299.38 267.589 1298.76 266.759 1298.89 265.853C1299.02 264.947 1299.84 264.32 1300.73 264.446C1301.62 264.573 1302.24 265.403 1302.11 266.309C1301.98 267.215 1301.16 267.842 1300.27 267.716Z" fill="#234361"/>
<path d="M1298.32 311.936C1298.99 312.031 1299.6 311.558 1299.7 310.881C1299.79 310.204 1299.33 309.579 1298.67 309.484C1298 309.39 1297.38 309.862 1297.29 310.539C1297.19 311.217 1297.65 311.842 1298.32 311.936Z" fill="#234361"/>
</g>
<g opacity="0.8">
<path d="M5.60999 11.01C6.78083 11.01 7.73004 10.0608 7.73004 8.88998C7.73004 7.71914 6.78083 6.76999 5.60999 6.76999C4.43914 6.76999 3.48999 7.71914 3.48999 8.88998C3.48999 10.0608 4.43914 11.01 5.60999 11.01Z" fill="#234361"/>
<path d="M24.7101 11.01C25.8809 11.01 26.8301 10.0608 26.8301 8.88998C26.8301 7.71914 25.8809 6.76999 24.7101 6.76999C23.5392 6.76999 22.5901 7.71914 22.5901 8.88998C22.5901 10.0608 23.5392 11.01 24.7101 11.01Z" fill="#234361"/>
<path d="M43.8099 11.01C44.9808 11.01 45.9299 10.0608 45.9299 8.88998C45.9299 7.71914 44.9808 6.76999 43.8099 6.76999C42.6391 6.76999 41.6899 7.71914 41.6899 8.88998C41.6899 10.0608 42.6391 11.01 43.8099 11.01Z" fill="#234361"/>
<path d="M62.91 11.01C64.0809 11.01 65.03 10.0608 65.03 8.88998C65.03 7.71914 64.0809 6.76999 62.91 6.76999C61.7392 6.76999 60.79 7.71914 60.79 8.88998C60.79 10.0608 61.7392 11.01 62.91 11.01Z" fill="#234361"/>
<path d="M82.0101 11.01C83.181 11.01 84.1301 10.0608 84.1301 8.88998C84.1301 7.71914 83.181 6.76999 82.0101 6.76999C80.8393 6.76999 79.8901 7.71914 79.8901 8.88998C79.8901 10.0608 80.8393 11.01 82.0101 11.01Z" fill="#234361"/>
<path d="M101.11 11.01C102.281 11.01 103.23 10.0608 103.23 8.88998C103.23 7.71914 102.281 6.76999 101.11 6.76999C99.9391 6.76999 98.99 7.71914 98.99 8.88998C98.99 10.0608 99.9391 11.01 101.11 11.01Z" fill="#234361"/>
<path d="M7.73999 25.86C7.73999 27.03 6.79 27.98 5.62 27.98C4.45 27.98 3.5 27.03 3.5 25.86C3.5 24.69 4.45 23.74 5.62 23.74C6.77999 23.74 7.73999 24.69 7.73999 25.86Z" fill="#234361"/>
<path d="M26.8301 25.86C26.8301 27.03 25.8801 27.98 24.7101 27.98C23.5401 27.98 22.5901 27.03 22.5901 25.86C22.5901 24.69 23.5401 23.74 24.7101 23.74C25.8801 23.74 26.8301 24.69 26.8301 25.86Z" fill="#234361"/>
<path d="M45.9299 25.86C45.9299 27.03 44.9799 27.98 43.8099 27.98C42.6399 27.98 41.6899 27.03 41.6899 25.86C41.6899 24.69 42.6399 23.74 43.8099 23.74C44.9799 23.74 45.9299 24.69 45.9299 25.86Z" fill="#234361"/>
<path d="M65.03 25.86C65.03 27.03 64.08 27.98 62.91 27.98C61.74 27.98 60.79 27.03 60.79 25.86C60.79 24.69 61.74 23.74 62.91 23.74C64.08 23.74 65.03 24.69 65.03 25.86Z" fill="#234361"/>
<path d="M84.1301 25.86C84.1301 27.03 83.1801 27.98 82.0101 27.98C80.8401 27.98 79.8901 27.03 79.8901 25.86C79.8901 24.69 80.8401 23.74 82.0101 23.74C83.1801 23.74 84.1301 24.69 84.1301 25.86Z" fill="#234361"/>
<path d="M103.23 25.86C103.23 27.03 102.28 27.98 101.11 27.98C99.94 27.98 98.99 27.03 98.99 25.86C98.99 24.69 99.94 23.74 101.11 23.74C102.28 23.74 103.23 24.69 103.23 25.86Z" fill="#234361"/>
</g>
<g opacity="0.8">
<path d="M714.692 -186.771C754.944 -197.434 796.942 -191.78 832.949 -170.862L831.947 -169.138C758.571 -211.781 664.196 -186.781 621.554 -113.405C600.897 -77.8601 595.318 -36.3991 605.842 3.33055C616.367 43.0602 641.743 76.3316 677.285 96.9787L676.283 98.7028C640.274 77.7759 614.579 44.0821 603.916 3.83048C593.253 -36.4212 598.908 -78.4193 619.825 -114.426C640.747 -150.414 674.441 -176.108 714.692 -186.771Z" fill="#234361"/>
<path d="M717.456 -176.341C753.396 -185.861 792.95 -181.701 827.553 -161.592L826.551 -159.868C758.299 -199.533 670.497 -176.274 630.822 -108.019C591.157 -39.7659 614.419 48.0454 682.671 87.7104L681.669 89.4345C612.463 49.2152 588.879 -39.8141 629.096 -109.03C649.208 -143.624 681.525 -166.823 717.456 -176.341Z" fill="#234361"/>
<path d="M720.185 -166.036C754.898 -175.232 791.115 -170.353 822.169 -152.314L821.167 -150.59C790.575 -168.369 754.898 -173.163 720.707 -164.105C686.507 -155.046 657.884 -133.208 640.112 -102.628C622.333 -72.0351 617.539 -36.358 626.597 -2.16726C635.656 32.0331 657.494 60.6555 688.074 78.4274L687.072 80.1514C656.027 62.1096 633.856 33.0479 624.661 -1.66477C615.465 -36.3775 620.344 -72.5943 638.383 -103.649C656.42 -134.672 685.472 -156.841 720.185 -166.036Z" fill="#234361"/>
<path d="M722.948 -155.606C753.572 -163.718 787.284 -160.173 816.776 -143.033L815.774 -141.309C757.743 -175.034 683.098 -155.26 649.373 -97.2292C615.649 -39.1986 635.423 35.4468 693.453 69.1713L692.451 70.8954C633.467 36.6166 613.368 -39.2565 647.649 -98.2312C664.789 -127.723 692.324 -147.494 722.948 -155.606Z" fill="#234361"/>
<path d="M725.693 -145.243C753.659 -152.651 784.453 -149.419 811.39 -133.765L810.388 -132.041C757.468 -162.795 689.406 -144.765 658.661 -91.8481C627.907 -38.9284 645.937 29.134 698.854 59.8786L697.852 61.6026C643.991 30.3012 625.633 -38.9985 656.934 -92.8597C672.572 -119.782 697.728 -137.835 725.693 -145.243Z" fill="#234361"/>
<path d="M728.438 -134.881C753.755 -141.587 781.625 -138.656 805.994 -124.494L804.992 -122.77C757.195 -150.547 695.706 -134.258 667.929 -86.4619C654.471 -63.3034 650.836 -36.2921 657.694 -10.405C664.551 15.4821 681.082 37.1518 704.24 50.6103L703.238 52.3344C679.618 38.6155 662.764 16.504 655.77 -9.89543C648.777 -36.2949 652.484 -63.8529 666.205 -87.4638C680.367 -111.833 703.121 -128.174 728.438 -134.881Z" fill="#234361"/>
<path d="M731.183 -124.518C753.842 -130.52 778.785 -127.9 800.61 -115.216L799.608 -113.492C756.923 -138.299 702.017 -123.754 677.21 -81.0685C652.403 -38.383 666.948 16.5231 709.634 41.3298L708.632 43.0538C664.992 17.6929 650.123 -38.4409 675.483 -82.0801C688.153 -103.881 708.525 -118.516 731.183 -124.518Z" fill="#234361"/>
<path d="M724.547 93.3347L728.65 86.2892L730.125 91.8571L724.547 93.3347Z" fill="#234361"/>
<path d="M714.223 96.0695L725.913 75.9556L727.388 81.5236L719.791 94.5945L714.223 96.0695Z" fill="#234361"/>
<path d="M683.31 104.259L717.726 45.0516L719.178 50.5325L688.8 102.804L683.31 104.259Z" fill="#234361"/>
<path d="M693.556 101.544L720.44 55.2981L721.915 60.8661L699.124 100.069L693.556 101.544Z" fill="#234361"/>
<path d="M703.89 98.8069L723.175 65.622L724.653 71.1997L709.458 97.3319L703.89 98.8069Z" fill="#234361"/>
</g>
</g>
<defs>
<clipPath id="clip0_142_29">
<rect width="1440" height="680" fill="white"/>
</clipPath>
</defs>
</svg>
