<svg width="1440" height="598" viewBox="0 0 1440 598" fill="none" xmlns="http://www.w3.org/2000/svg">
<g clip-path="url(#clip0_179_7)">
<path d="M1102.55 -81.7709C1062.29 -92.4336 1020.3 -86.7795 984.289 -65.8624L985.291 -64.1383C1058.67 -106.781 1153.04 -81.7807 1195.68 -8.40476C1216.34 27.1399 1221.92 68.6009 1211.4 108.331C1200.87 148.06 1175.5 181.332 1139.95 201.979L1140.96 203.703C1176.96 182.776 1202.66 149.082 1213.32 108.831C1223.98 68.5789 1218.33 26.5807 1197.41 -9.42605C1176.49 -45.4135 1142.8 -71.1081 1102.55 -81.7709Z" fill="#234361"/>
<path d="M1099.78 -71.3406C1063.84 -80.8613 1024.29 -76.7012 989.685 -56.5916L990.687 -54.8675C1058.94 -94.5326 1146.74 -71.2738 1186.42 -3.01854C1226.08 65.2341 1202.82 153.045 1134.57 192.71L1135.57 194.434C1204.78 154.215 1228.36 65.1859 1188.14 -4.03013C1168.03 -38.6237 1135.71 -61.8225 1099.78 -71.3406Z" fill="#234361"/>
<path d="M1097.05 -61.036C1062.34 -70.2315 1026.12 -65.3529 995.069 -47.3136L996.071 -45.5895C1026.66 -63.3684 1062.34 -68.1625 1096.53 -59.1053C1130.73 -50.0455 1159.35 -28.2081 1177.13 2.3723C1194.9 32.965 1199.7 68.6421 1190.64 102.833C1181.58 137.033 1159.74 165.656 1129.16 183.427L1130.17 185.151C1161.21 167.11 1183.38 138.048 1192.58 103.335C1201.77 68.6226 1196.89 32.4058 1178.85 1.35106C1160.82 -29.6721 1131.77 -51.8406 1097.05 -61.036Z" fill="#234361"/>
<path d="M1094.29 -50.6058C1063.67 -58.7181 1029.95 -55.1725 1000.46 -38.0331L1001.46 -36.3091C1059.49 -70.0336 1134.14 -50.2599 1167.86 7.77076C1201.59 65.8014 1181.82 140.447 1123.78 174.171L1124.79 175.895C1183.77 141.617 1203.87 65.7436 1169.59 6.76882C1152.45 -22.7234 1124.91 -42.4935 1094.29 -50.6058Z" fill="#234361"/>
<path d="M1091.54 -40.2432C1063.58 -47.6513 1032.79 -44.4191 1005.85 -28.7648L1006.85 -27.0408C1059.77 -57.795 1127.83 -39.7652 1158.58 13.1519C1189.33 66.0716 1171.3 134.134 1118.38 164.879L1119.39 166.603C1173.25 135.301 1191.61 66.0015 1160.3 12.1403C1144.67 -14.7816 1119.51 -32.8351 1091.54 -40.2432Z" fill="#234361"/>
<path d="M1088.8 -29.8807C1063.48 -36.5871 1035.61 -33.656 1011.24 -19.494L1012.25 -17.77C1060.04 -45.5469 1121.53 -29.2583 1149.31 18.5381C1162.77 41.6966 1166.4 68.7079 1159.54 94.595C1152.69 120.482 1136.16 142.152 1113 155.61L1114 157.334C1137.62 143.615 1154.47 121.504 1161.47 95.1046C1168.46 68.7051 1164.75 41.1471 1151.03 17.5362C1136.87 -6.83275 1114.12 -23.1742 1088.8 -29.8807Z" fill="#234361"/>
<path d="M1086.05 -19.5181C1063.4 -25.5204 1038.45 -22.9001 1016.63 -10.2161L1017.63 -8.49201C1060.32 -33.2987 1115.22 -18.7539 1140.03 23.9315C1164.83 66.617 1150.29 121.523 1107.6 146.33L1108.61 148.054C1152.25 122.693 1167.12 66.5591 1141.75 22.9199C1129.08 1.1187 1108.71 -13.5158 1086.05 -19.5181Z" fill="#234361"/>
<path d="M1092.69 198.335L1088.59 191.289L1087.11 196.857L1092.69 198.335Z" fill="#234361"/>
<path d="M1103.01 201.07L1091.33 180.956L1089.85 186.524L1097.45 199.595L1103.01 201.07Z" fill="#234361"/>
<path d="M1133.93 209.259L1099.51 150.052L1098.06 155.533L1128.44 207.804L1133.93 209.259Z" fill="#234361"/>
<path d="M1123.68 206.544L1096.8 160.298L1095.32 165.866L1118.11 205.069L1123.68 206.544Z" fill="#234361"/>
<path d="M1113.35 203.807L1094.06 170.622L1092.59 176.2L1107.78 202.332L1113.35 203.807Z" fill="#234361"/>
<path d="M1255.12 470.24C1256.29 470.24 1257.24 469.291 1257.24 468.12C1257.24 466.949 1256.29 466 1255.12 466C1253.95 466 1253 466.949 1253 468.12C1253 469.291 1253.95 470.24 1255.12 470.24Z" fill="#234361"/>
<path d="M1274.22 470.24C1275.39 470.24 1276.34 469.291 1276.34 468.12C1276.34 466.949 1275.39 466 1274.22 466C1273.05 466 1272.1 466.949 1272.1 468.12C1272.1 469.291 1273.05 470.24 1274.22 470.24Z" fill="#234361"/>
<path d="M1293.32 470.24C1294.49 470.24 1295.44 469.291 1295.44 468.12C1295.44 466.949 1294.49 466 1293.32 466C1292.15 466 1291.2 466.949 1291.2 468.12C1291.2 469.291 1292.15 470.24 1293.32 470.24Z" fill="#234361"/>
<path d="M1312.42 470.24C1313.59 470.24 1314.54 469.291 1314.54 468.12C1314.54 466.949 1313.59 466 1312.42 466C1311.25 466 1310.3 466.949 1310.3 468.12C1310.3 469.291 1311.25 470.24 1312.42 470.24Z" fill="#234361"/>
<path d="M1333.64 468.12C1333.64 469.29 1332.69 470.24 1331.52 470.24C1330.35 470.24 1329.4 469.29 1329.4 468.12C1329.4 466.95 1330.35 466 1331.52 466C1332.69 466 1333.64 466.95 1333.64 468.12Z" fill="#234361"/>
<path d="M1350.61 470.24C1351.78 470.24 1352.73 469.291 1352.73 468.12C1352.73 466.949 1351.78 466 1350.61 466C1349.44 466 1348.49 466.949 1348.49 468.12C1348.49 469.291 1349.44 470.24 1350.61 470.24Z" fill="#234361"/>
<path d="M1369.71 470.24C1370.88 470.24 1371.83 469.291 1371.83 468.12C1371.83 466.949 1370.88 466 1369.71 466C1368.54 466 1367.59 466.949 1367.59 468.12C1367.59 469.291 1368.54 470.24 1369.71 470.24Z" fill="#234361"/>
<path d="M1388.81 470.24C1389.98 470.24 1390.93 469.291 1390.93 468.12C1390.93 466.949 1389.98 466 1388.81 466C1387.64 466 1386.69 466.949 1386.69 468.12C1386.69 469.291 1387.64 470.24 1388.81 470.24Z" fill="#234361"/>
<path d="M1407.91 470.24C1409.08 470.24 1410.03 469.291 1410.03 468.12C1410.03 466.949 1409.08 466 1407.91 466C1406.74 466 1405.79 466.949 1405.79 468.12C1405.79 469.291 1406.74 470.24 1407.91 470.24Z" fill="#234361"/>
<path d="M1427.01 470.24C1428.18 470.24 1429.13 469.291 1429.13 468.12C1429.13 466.949 1428.18 466 1427.01 466C1425.84 466 1424.89 466.949 1424.89 468.12C1424.89 469.291 1425.84 470.24 1427.01 470.24Z" fill="#234361"/>
<path d="M1255.12 487.22C1256.29 487.22 1257.24 486.271 1257.24 485.1C1257.24 483.929 1256.29 482.98 1255.12 482.98C1253.95 482.98 1253 483.929 1253 485.1C1253 486.271 1253.95 487.22 1255.12 487.22Z" fill="#234361"/>
<path d="M1274.22 487.22C1275.39 487.22 1276.34 486.271 1276.34 485.1C1276.34 483.929 1275.39 482.98 1274.22 482.98C1273.05 482.98 1272.1 483.929 1272.1 485.1C1272.1 486.271 1273.05 487.22 1274.22 487.22Z" fill="#234361"/>
<path d="M1293.32 487.22C1294.49 487.22 1295.44 486.271 1295.44 485.1C1295.44 483.929 1294.49 482.98 1293.32 482.98C1292.15 482.98 1291.2 483.929 1291.2 485.1C1291.2 486.271 1292.15 487.22 1293.32 487.22Z" fill="#234361"/>
<path d="M1312.42 487.22C1313.59 487.22 1314.54 486.271 1314.54 485.1C1314.54 483.929 1313.59 482.98 1312.42 482.98C1311.25 482.98 1310.3 483.929 1310.3 485.1C1310.3 486.271 1311.25 487.22 1312.42 487.22Z" fill="#234361"/>
<path d="M1333.64 485.1C1333.64 486.27 1332.69 487.22 1331.52 487.22C1330.35 487.22 1329.4 486.27 1329.4 485.1C1329.4 483.93 1330.35 482.98 1331.52 482.98C1332.69 482.98 1333.64 483.93 1333.64 485.1Z" fill="#234361"/>
<path d="M1350.61 487.22C1351.78 487.22 1352.73 486.271 1352.73 485.1C1352.73 483.929 1351.78 482.98 1350.61 482.98C1349.44 482.98 1348.49 483.929 1348.49 485.1C1348.49 486.271 1349.44 487.22 1350.61 487.22Z" fill="#234361"/>
<path d="M1369.71 487.22C1370.88 487.22 1371.83 486.271 1371.83 485.1C1371.83 483.929 1370.88 482.98 1369.71 482.98C1368.54 482.98 1367.59 483.929 1367.59 485.1C1367.59 486.271 1368.54 487.22 1369.71 487.22Z" fill="#234361"/>
<path d="M1388.81 487.22C1389.98 487.22 1390.93 486.271 1390.93 485.1C1390.93 483.929 1389.98 482.98 1388.81 482.98C1387.64 482.98 1386.69 483.929 1386.69 485.1C1386.69 486.271 1387.64 487.22 1388.81 487.22Z" fill="#234361"/>
<path d="M1407.91 487.22C1409.08 487.22 1410.03 486.271 1410.03 485.1C1410.03 483.929 1409.08 482.98 1407.91 482.98C1406.74 482.98 1405.79 483.929 1405.79 485.1C1405.79 486.271 1406.74 487.22 1407.91 487.22Z" fill="#234361"/>
<path d="M1427.01 487.22C1428.18 487.22 1429.13 486.271 1429.13 485.1C1429.13 483.929 1428.18 482.98 1427.01 482.98C1425.84 482.98 1424.89 483.929 1424.89 485.1C1424.89 486.271 1425.84 487.22 1427.01 487.22Z" fill="#234361"/>
<path d="M1255.12 504.19C1256.29 504.19 1257.24 503.241 1257.24 502.07C1257.24 500.899 1256.29 499.95 1255.12 499.95C1253.95 499.95 1253 500.899 1253 502.07C1253 503.241 1253.95 504.19 1255.12 504.19Z" fill="#234361"/>
<path d="M1274.22 504.19C1275.39 504.19 1276.34 503.241 1276.34 502.07C1276.34 500.899 1275.39 499.95 1274.22 499.95C1273.05 499.95 1272.1 500.899 1272.1 502.07C1272.1 503.241 1273.05 504.19 1274.22 504.19Z" fill="#234361"/>
<path d="M1293.32 504.19C1294.49 504.19 1295.44 503.241 1295.44 502.07C1295.44 500.899 1294.49 499.95 1293.32 499.95C1292.15 499.95 1291.2 500.899 1291.2 502.07C1291.2 503.241 1292.15 504.19 1293.32 504.19Z" fill="#234361"/>
<path d="M1312.42 504.19C1313.59 504.19 1314.54 503.241 1314.54 502.07C1314.54 500.899 1313.59 499.95 1312.42 499.95C1311.25 499.95 1310.3 500.899 1310.3 502.07C1310.3 503.241 1311.25 504.19 1312.42 504.19Z" fill="#234361"/>
<path d="M1333.64 502.07C1333.64 503.24 1332.69 504.19 1331.52 504.19C1330.35 504.19 1329.4 503.24 1329.4 502.07C1329.4 500.9 1330.35 499.95 1331.52 499.95C1332.69 499.95 1333.64 500.9 1333.64 502.07Z" fill="#234361"/>
<path d="M1350.61 504.19C1351.78 504.19 1352.73 503.241 1352.73 502.07C1352.73 500.899 1351.78 499.95 1350.61 499.95C1349.44 499.95 1348.49 500.899 1348.49 502.07C1348.49 503.241 1349.44 504.19 1350.61 504.19Z" fill="#234361"/>
<path d="M1369.71 504.19C1370.88 504.19 1371.83 503.241 1371.83 502.07C1371.83 500.899 1370.88 499.95 1369.71 499.95C1368.54 499.95 1367.59 500.899 1367.59 502.07C1367.59 503.241 1368.54 504.19 1369.71 504.19Z" fill="#234361"/>
<path d="M1388.81 504.19C1389.98 504.19 1390.93 503.241 1390.93 502.07C1390.93 500.899 1389.98 499.95 1388.81 499.95C1387.64 499.95 1386.69 500.899 1386.69 502.07C1386.69 503.241 1387.64 504.19 1388.81 504.19Z" fill="#234361"/>
<path d="M1407.91 504.19C1409.08 504.19 1410.03 503.241 1410.03 502.07C1410.03 500.899 1409.08 499.95 1407.91 499.95C1406.74 499.95 1405.79 500.899 1405.79 502.07C1405.79 503.241 1406.74 504.19 1407.91 504.19Z" fill="#234361"/>
<path d="M1427.01 504.19C1428.18 504.19 1429.13 503.241 1429.13 502.07C1429.13 500.899 1428.18 499.95 1427.01 499.95C1425.84 499.95 1424.89 500.899 1424.89 502.07C1424.89 503.241 1425.84 504.19 1427.01 504.19Z" fill="#234361"/>
<path d="M1257.24 519.05C1257.24 520.22 1256.29 521.17 1255.12 521.17C1253.95 521.17 1253 520.22 1253 519.05C1253 517.88 1253.95 516.93 1255.12 516.93C1256.29 516.93 1257.24 517.88 1257.24 519.05Z" fill="#234361"/>
<path d="M1276.34 519.05C1276.34 520.22 1275.39 521.17 1274.22 521.17C1273.05 521.17 1272.1 520.22 1272.1 519.05C1272.1 517.88 1273.05 516.93 1274.22 516.93C1275.39 516.93 1276.34 517.88 1276.34 519.05Z" fill="#234361"/>
<path d="M1295.44 519.05C1295.44 520.22 1294.49 521.17 1293.32 521.17C1292.15 521.17 1291.2 520.22 1291.2 519.05C1291.2 517.88 1292.15 516.93 1293.32 516.93C1294.49 516.93 1295.44 517.88 1295.44 519.05Z" fill="#234361"/>
<path d="M1314.54 519.05C1314.54 520.22 1313.59 521.17 1312.42 521.17C1311.25 521.17 1310.3 520.22 1310.3 519.05C1310.3 517.88 1311.25 516.93 1312.42 516.93C1313.59 516.93 1314.54 517.88 1314.54 519.05Z" fill="#234361"/>
<path d="M1333.64 519.05C1333.64 520.22 1332.69 521.17 1331.52 521.17C1330.35 521.17 1329.4 520.22 1329.4 519.05C1329.4 517.88 1330.35 516.93 1331.52 516.93C1332.69 516.93 1333.64 517.88 1333.64 519.05Z" fill="#234361"/>
<path d="M1352.74 519.05C1352.74 520.22 1351.79 521.17 1350.62 521.17C1349.45 521.17 1348.5 520.22 1348.5 519.05C1348.5 517.88 1349.45 516.93 1350.62 516.93C1351.78 516.93 1352.74 517.88 1352.74 519.05Z" fill="#234361"/>
<path d="M1371.83 519.05C1371.83 520.22 1370.88 521.17 1369.71 521.17C1368.54 521.17 1367.59 520.22 1367.59 519.05C1367.59 517.88 1368.54 516.93 1369.71 516.93C1370.88 516.93 1371.83 517.88 1371.83 519.05Z" fill="#234361"/>
<path d="M1390.93 519.05C1390.93 520.22 1389.98 521.17 1388.81 521.17C1387.64 521.17 1386.69 520.22 1386.69 519.05C1386.69 517.88 1387.64 516.93 1388.81 516.93C1389.98 516.93 1390.93 517.88 1390.93 519.05Z" fill="#234361"/>
<path d="M1410.03 519.05C1410.03 520.22 1409.08 521.17 1407.91 521.17C1406.74 521.17 1405.79 520.22 1405.79 519.05C1405.79 517.88 1406.74 516.93 1407.91 516.93C1409.08 516.93 1410.03 517.88 1410.03 519.05Z" fill="#234361"/>
<path d="M1429.13 519.05C1429.13 520.22 1428.18 521.17 1427.01 521.17C1425.84 521.17 1424.89 520.22 1424.89 519.05C1424.89 517.88 1425.84 516.93 1427.01 516.93C1428.18 516.93 1429.13 517.88 1429.13 519.05Z" fill="#234361"/>
<path d="M1257.24 536.03C1257.24 537.2 1256.29 538.15 1255.12 538.15C1253.95 538.15 1253 537.2 1253 536.03C1253 534.86 1253.95 533.91 1255.12 533.91C1256.29 533.9 1257.24 534.85 1257.24 536.03Z" fill="#234361"/>
<path d="M1276.34 536.03C1276.34 537.2 1275.39 538.15 1274.22 538.15C1273.05 538.15 1272.1 537.2 1272.1 536.03C1272.1 534.86 1273.05 533.91 1274.22 533.91C1275.39 533.9 1276.34 534.85 1276.34 536.03Z" fill="#234361"/>
<path d="M1295.44 536.03C1295.44 537.2 1294.49 538.15 1293.32 538.15C1292.15 538.15 1291.2 537.2 1291.2 536.03C1291.2 534.86 1292.15 533.91 1293.32 533.91C1294.49 533.9 1295.44 534.85 1295.44 536.03Z" fill="#234361"/>
<path d="M1314.54 536.03C1314.54 537.2 1313.59 538.15 1312.42 538.15C1311.25 538.15 1310.3 537.2 1310.3 536.03C1310.3 534.86 1311.25 533.91 1312.42 533.91C1313.59 533.9 1314.54 534.85 1314.54 536.03Z" fill="#234361"/>
<path d="M1333.64 536.03C1333.64 537.2 1332.69 538.15 1331.52 538.15C1330.35 538.15 1329.4 537.2 1329.4 536.03C1329.4 534.86 1330.35 533.91 1331.52 533.91C1332.69 533.9 1333.64 534.85 1333.64 536.03Z" fill="#234361"/>
<path d="M1352.74 536.03C1352.74 537.2 1351.79 538.15 1350.62 538.15C1349.45 538.15 1348.5 537.2 1348.5 536.03C1348.5 534.86 1349.45 533.91 1350.62 533.91C1351.78 533.9 1352.74 534.85 1352.74 536.03Z" fill="#234361"/>
<path d="M1371.83 536.03C1371.83 537.2 1370.88 538.15 1369.71 538.15C1368.54 538.15 1367.59 537.2 1367.59 536.03C1367.59 534.86 1368.54 533.91 1369.71 533.91C1370.88 533.9 1371.83 534.85 1371.83 536.03Z" fill="#234361"/>
<path d="M1390.93 536.03C1390.93 537.2 1389.98 538.15 1388.81 538.15C1387.64 538.15 1386.69 537.2 1386.69 536.03C1386.69 534.86 1387.64 533.91 1388.81 533.91C1389.98 533.91 1390.93 534.85 1390.93 536.03Z" fill="#234361"/>
<path d="M1410.03 536.03C1410.03 537.2 1409.08 538.15 1407.91 538.15C1406.74 538.15 1405.79 537.2 1405.79 536.03C1405.79 534.86 1406.74 533.91 1407.91 533.91C1409.08 533.9 1410.03 534.85 1410.03 536.03Z" fill="#234361"/>
<path d="M1429.13 536.03C1429.13 537.2 1428.18 538.15 1427.01 538.15C1425.84 538.15 1424.89 537.2 1424.89 536.03C1424.89 534.86 1425.84 533.91 1427.01 533.91C1428.18 533.9 1429.13 534.85 1429.13 536.03Z" fill="#234361"/>
<path d="M1255.12 555.12C1256.29 555.12 1257.24 554.171 1257.24 553C1257.24 551.829 1256.29 550.88 1255.12 550.88C1253.95 550.88 1253 551.829 1253 553C1253 554.171 1253.95 555.12 1255.12 555.12Z" fill="#234361"/>
<path d="M1274.22 555.12C1275.39 555.12 1276.34 554.171 1276.34 553C1276.34 551.829 1275.39 550.88 1274.22 550.88C1273.05 550.88 1272.1 551.829 1272.1 553C1272.1 554.171 1273.05 555.12 1274.22 555.12Z" fill="#234361"/>
<path d="M1293.32 555.12C1294.49 555.12 1295.44 554.171 1295.44 553C1295.44 551.829 1294.49 550.88 1293.32 550.88C1292.15 550.88 1291.2 551.829 1291.2 553C1291.2 554.171 1292.15 555.12 1293.32 555.12Z" fill="#234361"/>
<path d="M1312.42 555.12C1313.59 555.12 1314.54 554.171 1314.54 553C1314.54 551.829 1313.59 550.88 1312.42 550.88C1311.25 550.88 1310.3 551.829 1310.3 553C1310.3 554.171 1311.25 555.12 1312.42 555.12Z" fill="#234361"/>
<path d="M1333.64 553C1333.64 554.17 1332.69 555.12 1331.52 555.12C1330.35 555.12 1329.4 554.17 1329.4 553C1329.4 551.83 1330.35 550.88 1331.52 550.88C1332.69 550.88 1333.64 551.83 1333.64 553Z" fill="#234361"/>
<path d="M1350.61 555.12C1351.78 555.12 1352.73 554.171 1352.73 553C1352.73 551.829 1351.78 550.88 1350.61 550.88C1349.44 550.88 1348.49 551.829 1348.49 553C1348.49 554.171 1349.44 555.12 1350.61 555.12Z" fill="#234361"/>
<path d="M1369.71 555.12C1370.88 555.12 1371.83 554.171 1371.83 553C1371.83 551.829 1370.88 550.88 1369.71 550.88C1368.54 550.88 1367.59 551.829 1367.59 553C1367.59 554.171 1368.54 555.12 1369.71 555.12Z" fill="#234361"/>
<path d="M1388.81 555.12C1389.98 555.12 1390.93 554.171 1390.93 553C1390.93 551.829 1389.98 550.88 1388.81 550.88C1387.64 550.88 1386.69 551.829 1386.69 553C1386.69 554.171 1387.64 555.12 1388.81 555.12Z" fill="#234361"/>
<path d="M1407.91 555.12C1409.08 555.12 1410.03 554.171 1410.03 553C1410.03 551.829 1409.08 550.88 1407.91 550.88C1406.74 550.88 1405.79 551.829 1405.79 553C1405.79 554.171 1406.74 555.12 1407.91 555.12Z" fill="#234361"/>
<path d="M1427.01 555.12C1428.18 555.12 1429.13 554.171 1429.13 553C1429.13 551.829 1428.18 550.88 1427.01 550.88C1425.84 550.88 1424.89 551.829 1424.89 553C1424.89 554.171 1425.84 555.12 1427.01 555.12Z" fill="#234361"/>
<path d="M1255.12 572.1C1256.29 572.1 1257.24 571.151 1257.24 569.98C1257.24 568.809 1256.29 567.86 1255.12 567.86C1253.95 567.86 1253 568.809 1253 569.98C1253 571.151 1253.95 572.1 1255.12 572.1Z" fill="#234361"/>
<path d="M1274.22 572.1C1275.39 572.1 1276.34 571.151 1276.34 569.98C1276.34 568.809 1275.39 567.86 1274.22 567.86C1273.05 567.86 1272.1 568.809 1272.1 569.98C1272.1 571.151 1273.05 572.1 1274.22 572.1Z" fill="#234361"/>
<path d="M1293.32 572.1C1294.49 572.1 1295.44 571.151 1295.44 569.98C1295.44 568.809 1294.49 567.86 1293.32 567.86C1292.15 567.86 1291.2 568.809 1291.2 569.98C1291.2 571.151 1292.15 572.1 1293.32 572.1Z" fill="#234361"/>
<path d="M1312.42 572.1C1313.59 572.1 1314.54 571.151 1314.54 569.98C1314.54 568.809 1313.59 567.86 1312.42 567.86C1311.25 567.86 1310.3 568.809 1310.3 569.98C1310.3 571.151 1311.25 572.1 1312.42 572.1Z" fill="#234361"/>
<path d="M1333.64 569.98C1333.64 571.15 1332.69 572.1 1331.52 572.1C1330.35 572.1 1329.4 571.15 1329.4 569.98C1329.4 568.81 1330.35 567.86 1331.52 567.86C1332.69 567.86 1333.64 568.81 1333.64 569.98Z" fill="#234361"/>
<path d="M1350.61 572.1C1351.78 572.1 1352.73 571.151 1352.73 569.98C1352.73 568.809 1351.78 567.86 1350.61 567.86C1349.44 567.86 1348.49 568.809 1348.49 569.98C1348.49 571.151 1349.44 572.1 1350.61 572.1Z" fill="#234361"/>
<path d="M1369.71 572.1C1370.88 572.1 1371.83 571.151 1371.83 569.98C1371.83 568.809 1370.88 567.86 1369.71 567.86C1368.54 567.86 1367.59 568.809 1367.59 569.98C1367.59 571.151 1368.54 572.1 1369.71 572.1Z" fill="#234361"/>
<path d="M1388.81 572.1C1389.98 572.1 1390.93 571.151 1390.93 569.98C1390.93 568.809 1389.98 567.86 1388.81 567.86C1387.64 567.86 1386.69 568.809 1386.69 569.98C1386.69 571.151 1387.64 572.1 1388.81 572.1Z" fill="#234361"/>
<path d="M1407.91 572.1C1409.08 572.1 1410.03 571.151 1410.03 569.98C1410.03 568.809 1409.08 567.86 1407.91 567.86C1406.74 567.86 1405.79 568.809 1405.79 569.98C1405.79 571.151 1406.74 572.1 1407.91 572.1Z" fill="#234361"/>
<path d="M1427.01 572.1C1428.18 572.1 1429.13 571.151 1429.13 569.98C1429.13 568.809 1428.18 567.86 1427.01 567.86C1425.84 567.86 1424.89 568.809 1424.89 569.98C1424.89 571.151 1425.84 572.1 1427.01 572.1Z" fill="#234361"/>
<path d="M1257.24 586.96C1257.24 588.13 1256.29 589.08 1255.12 589.08C1253.95 589.08 1253 588.13 1253 586.96C1253 585.79 1253.95 584.84 1255.12 584.84C1256.29 584.83 1257.24 585.78 1257.24 586.96Z" fill="#234361"/>
<path d="M1276.34 586.96C1276.34 588.13 1275.39 589.08 1274.22 589.08C1273.05 589.08 1272.1 588.13 1272.1 586.96C1272.1 585.79 1273.05 584.84 1274.22 584.84C1275.39 584.83 1276.34 585.78 1276.34 586.96Z" fill="#234361"/>
<path d="M1295.44 586.96C1295.44 588.13 1294.49 589.08 1293.32 589.08C1292.15 589.08 1291.2 588.13 1291.2 586.96C1291.2 585.79 1292.15 584.84 1293.32 584.84C1294.49 584.83 1295.44 585.78 1295.44 586.96Z" fill="#234361"/>
<path d="M1314.54 586.96C1314.54 588.13 1313.59 589.08 1312.42 589.08C1311.25 589.08 1310.3 588.13 1310.3 586.96C1310.3 585.79 1311.25 584.84 1312.42 584.84C1313.59 584.83 1314.54 585.78 1314.54 586.96Z" fill="#234361"/>
<path d="M1333.64 586.96C1333.64 588.13 1332.69 589.08 1331.52 589.08C1330.35 589.08 1329.4 588.13 1329.4 586.96C1329.4 585.79 1330.35 584.84 1331.52 584.84C1332.69 584.83 1333.64 585.78 1333.64 586.96Z" fill="#234361"/>
<path d="M1352.74 586.96C1352.74 588.13 1351.79 589.08 1350.62 589.08C1349.45 589.08 1348.5 588.13 1348.5 586.96C1348.5 585.79 1349.45 584.84 1350.62 584.84C1351.78 584.83 1352.74 585.78 1352.74 586.96Z" fill="#234361"/>
<path d="M1371.83 586.96C1371.83 588.13 1370.88 589.08 1369.71 589.08C1368.54 589.08 1367.59 588.13 1367.59 586.96C1367.59 585.79 1368.54 584.84 1369.71 584.84C1370.88 584.83 1371.83 585.78 1371.83 586.96Z" fill="#234361"/>
<path d="M1390.93 586.96C1390.93 588.13 1389.98 589.08 1388.81 589.08C1387.64 589.08 1386.69 588.13 1386.69 586.96C1386.69 585.79 1387.64 584.84 1388.81 584.84C1389.98 584.84 1390.93 585.78 1390.93 586.96Z" fill="#234361"/>
<path d="M1410.03 586.96C1410.03 588.13 1409.08 589.08 1407.91 589.08C1406.74 589.08 1405.79 588.13 1405.79 586.96C1405.79 585.79 1406.74 584.84 1407.91 584.84C1409.08 584.83 1410.03 585.78 1410.03 586.96Z" fill="#234361"/>
<path d="M1429.13 586.96C1429.13 588.13 1428.18 589.08 1427.01 589.08C1425.84 589.08 1424.89 588.13 1424.89 586.96C1424.89 585.79 1425.84 584.84 1427.01 584.84C1428.18 584.83 1429.13 585.78 1429.13 586.96Z" fill="#234361"/>
<path d="M-124.703 613.972C-102.988 644.89 -66.328 662.55 -21.4874 663.709L-20.8107 661.67C-112.202 659.323 -163.116 586.833 -134.315 500.067C-120.363 458.035 -90.0068 418.962 -48.8476 390.054C-7.68844 361.145 39.3764 345.84 83.6383 346.984L84.315 344.945C39.4644 343.793 -8.19543 359.295 -49.8954 388.583C-91.5954 417.872 -122.343 457.452 -136.483 500.025C-150.602 542.585 -146.419 583.055 -124.703 613.972Z" fill="#234361"/>
<path d="M-113.898 606.383C-94.5081 633.989 -60.9536 651.635 -17.8544 652.742L-17.1777 650.703C-102.188 648.52 -149.556 581.079 -122.771 500.363C-95.9807 419.655 -5.00989 355.76 80.0006 357.944L80.6773 355.905C-5.52105 353.691 -97.7537 418.472 -124.928 500.315C-138.501 541.226 -133.282 578.785 -113.898 606.383Z" fill="#234361"/>
<path d="M-103.223 598.885C-84.4954 625.548 -52.8795 640.774 -14.2068 641.775L-13.5301 639.736C-51.634 638.758 -82.769 623.748 -101.214 597.486C-119.665 571.216 -123.21 536.829 -111.207 500.667C-99.1988 464.492 -73.072 430.873 -37.6511 405.995C-2.22012 381.11 38.2741 367.947 76.3628 368.925L77.0395 366.887C38.3721 365.893 -2.74235 379.259 -38.7041 404.517C-74.6658 429.775 -101.179 463.909 -113.374 500.626C-125.545 537.315 -121.95 572.222 -103.223 598.885Z" fill="#234361"/>
<path d="M-92.4174 591.296C-75.8963 614.818 -47.2978 629.857 -10.5645 630.801L-9.8878 628.762C-82.1665 626.906 -122.437 569.57 -99.6588 500.949C-76.8808 432.329 0.450453 378.014 72.7292 379.87L73.4059 377.832C-0.0607259 375.945 -78.6638 431.153 -101.806 500.894C-113.382 535.769 -108.939 567.773 -92.4174 591.296Z" fill="#234361"/>
<path d="M-81.6811 583.756C-66.5941 605.236 -40.476 618.98 -6.92564 619.841L-6.24892 617.803C-72.1618 616.11 -108.881 563.831 -88.1035 501.261C-67.3317 438.684 3.17972 389.159 69.0825 390.859L69.7592 388.821C2.67374 387.098 -69.1195 437.523 -90.2609 501.213C-100.834 533.044 -96.768 562.275 -81.6811 583.756Z" fill="#234361"/>
<path d="M-70.9463 576.215C-57.2882 595.661 -33.6458 608.095 -3.29361 608.874L-2.61689 606.836C-62.1486 605.306 -95.3212 558.076 -76.5603 501.558C-67.4702 474.173 -47.6933 448.718 -20.8747 429.881C5.94388 411.045 36.5994 401.078 65.4439 401.819L66.1206 399.78C36.7074 399.017 5.43686 409.194 -21.9125 428.404C-49.2618 447.613 -69.44 473.583 -78.7077 501.502C-88.2729 530.318 -84.6044 556.77 -70.9463 576.215Z" fill="#234361"/>
<path d="M-60.2102 568.675C-47.9862 586.079 -26.8294 597.209 0.355039 597.907L1.03176 595.869C-52.1341 594.503 -81.7552 552.329 -65.0005 501.854C-48.2458 451.379 8.63599 411.427 61.8018 412.793L62.4785 410.754C8.12483 409.358 -50.0288 450.203 -67.1579 501.806C-75.7152 527.586 -72.4341 551.271 -60.2102 568.675Z" fill="#234361"/>
<path d="M116.543 375.564L113.783 383.9L119.552 379.848L116.543 375.564Z" fill="#234361"/>
<path d="M110.973 367.634L103.078 391.419L108.846 387.367L113.977 371.911L110.973 367.634Z" fill="#234361"/>
<path d="M94.2955 343.889L71.062 413.906L76.7402 409.918L97.2576 348.107L94.2955 343.889Z" fill="#234361"/>
<path d="M99.8234 351.76L81.6773 406.45L87.4456 402.399L102.827 356.037L99.8234 351.76Z" fill="#234361"/>
<path d="M105.398 359.697L92.3727 398.938L98.151 394.88L108.402 363.974L105.398 359.697Z" fill="#234361"/>
</g>
<defs>
<clipPath id="clip0_179_7">
<rect width="1440" height="598" fill="white"/>
</clipPath>
</defs>
</svg>
