<svg width="1264" height="193" viewBox="0 0 1264 193" fill="none" xmlns="http://www.w3.org/2000/svg">
<path fill-rule="evenodd" clip-rule="evenodd" d="M93.568 7.25C91.386 11.238 78.706 34.975 65.389 60C52.073 85.025 39.389 108.774 37.202 112.776L33.227 120.051L37.061 118.563C39.17 117.744 52.527 113.038 66.744 108.105C80.962 103.171 92.712 98.992 92.856 98.817C93.001 98.643 97.27 91.3 102.344 82.5C107.418 73.7 111.919 66.133 112.347 65.685C112.775 65.237 130.643 65.414 152.055 66.079L190.985 67.287L234.144 34.393C257.881 16.302 277.323 1.163 277.349 0.75C277.374 0.337 236.927 0 187.465 0H97.535L93.568 7.25ZM214.395 84.177C198.72 89.639 185.377 94.646 184.744 95.304C184.11 95.962 179.454 103.7 174.395 112.5C169.336 121.3 165.129 128.561 165.046 128.635C164.963 128.709 147.345 128.207 125.895 127.519C104.445 126.83 86.445 126.593 85.895 126.992C85.345 127.39 65.794 142.293 42.447 160.108L0 192.5L89.892 192.755C139.333 192.896 180.14 192.655 180.575 192.22C181.725 191.07 243.573 74.837 243.205 74.517C243.034 74.368 230.07 78.716 214.395 84.177Z" fill="#70B44E"/>
<path fill-rule="evenodd" clip-rule="evenodd" d="M403.96 14.207C375.188 19.408 352.507 39.254 346.61 64.389C344.453 73.582 345.15 83.621 348.436 90.678C354.394 103.475 364.691 109.216 395.226 116.766C412.336 120.996 418.538 123.387 419.603 126.162C419.945 127.056 420.226 129.359 420.226 131.282C420.226 135.67 416.191 139.984 410.647 141.523C405.502 142.952 393.301 142.923 387.525 141.468C381.428 139.933 374.824 133.628 373.285 127.873C372.498 124.929 371.623 123.639 370.437 123.675C369.496 123.703 359.051 125.412 347.226 127.472L325.726 131.218L325.411 134.441C324.615 142.585 331.655 157.901 339.684 165.495C345.899 171.373 352.37 174.811 362.917 177.838C369.687 179.781 373.055 180.077 388.226 180.063C402.934 180.049 407.139 179.693 414.582 177.828C426.16 174.928 435.433 170.968 444.03 165.253C472.772 146.146 482.155 109.247 463.23 89.747C456.531 82.844 447.646 79.273 421.726 73.067C398.109 67.412 394.776 65.187 397.501 56.904C399.743 50.091 409.739 46.652 421.637 48.602C430.749 50.095 436.155 54.609 438.585 62.753C439.007 64.169 441.898 63.58 460.666 58.253L482.261 52.123L481.668 49.123C480.428 42.857 474.501 32.073 469.638 27.237C463.522 21.154 453.196 16.095 442.86 14.117C433.222 12.273 414.414 12.316 403.96 14.207ZM973.726 13.258C972.626 13.48 969.026 14.171 965.726 14.794C923.551 22.754 889.897 69.905 889.833 121.123C889.81 139.981 892.935 149.945 902.595 161.803C908.155 168.629 916.235 174.113 925.617 177.431C931.844 179.632 934.464 179.955 946.726 180.034C958.731 180.11 961.795 179.791 968.226 177.795C977.1 175.041 984.957 170.878 991.405 165.515C993.979 163.374 996.297 161.623 996.556 161.623C997.048 161.623 998.674 168.451 999.711 174.873L1000.32 178.623H1012.09H1023.86L1033.04 133.369C1038.09 108.479 1042.23 87.779 1042.23 87.369C1042.23 86.959 1025.83 86.623 1005.8 86.623H969.368L968.298 91.873C967.709 94.761 966.163 102.41 964.861 108.873L962.493 120.623H975.86C991.26 120.623 991.229 120.598 986.312 129.171C976.749 145.843 951.337 147.089 944.139 131.239C939.088 120.117 944.427 85.641 954.068 67.123C960.665 54.451 968.62 48.529 979.244 48.381C990.684 48.223 997.226 55.857 997.226 69.366V73.746L1001.48 73.193C1003.81 72.889 1013.38 71.944 1022.73 71.094C1032.08 70.244 1041.23 69.312 1043.07 69.023L1046.42 68.497L1045.7 61.31C1042.41 28.462 1022.73 12.344 986.388 12.739C980.524 12.803 974.826 13.037 973.726 13.258ZM546.625 21.873C544.631 25.86 526.201 61.973 505.671 102.123C485.14 142.273 468.043 175.91 467.677 176.873C467.058 178.503 468.372 178.623 486.883 178.623H506.754L514.996 162.104L523.237 145.585L545.482 145.854L567.726 146.123L568.901 159.123C569.548 166.273 570.11 173.586 570.151 175.373L570.226 178.623H595.663H621.1L620.635 175.373C619.92 170.388 603.226 17.545 603.226 15.99C603.226 14.868 598.468 14.623 576.739 14.623H550.251L546.625 21.873ZM669.761 16.769C668.795 20.868 637.226 177.279 637.226 177.966C637.226 178.993 700.556 178.685 711.67 177.605C724.332 176.374 734.638 173.539 744.628 168.54C778.731 151.477 800.643 115.321 800.333 76.623C800.138 52.254 788.872 31.425 771.226 22.809C757.067 15.895 753.041 15.377 709.521 14.871L670.316 14.416L669.761 16.769ZM836.735 16.873C835.76 21.024 804.226 177.301 804.226 177.984C804.226 178.355 815.331 178.538 828.903 178.39L853.58 178.123L869.892 97.623C878.864 53.348 886.21 16.561 886.216 15.873C886.224 14.907 880.669 14.623 861.745 14.623H837.264L836.735 16.873ZM1083.73 16.873C1082.73 21.109 1051.24 177.122 1051.23 177.89C1051.23 178.313 1062.33 178.538 1075.91 178.39L1100.59 178.123L1116.9 97.623C1125.87 53.348 1133.21 16.561 1133.22 15.873C1133.22 14.907 1127.67 14.623 1108.74 14.623H1084.26L1083.73 16.873ZM1148.74 15.873C1148.14 17.685 1141.23 51.488 1141.23 52.646C1141.23 53.243 1147.79 53.623 1158.11 53.623H1174.99L1162.61 114.763C1155.8 148.39 1150.23 176.523 1150.23 177.281C1150.23 178.421 1154.25 178.613 1173.44 178.391L1196.66 178.123L1209.22 116.123L1221.77 54.123L1238.86 53.85L1255.95 53.577L1259.59 35.35C1261.59 25.325 1263.23 16.561 1263.23 15.873C1263.23 14.042 1149.36 14.042 1148.74 15.873ZM737.405 54.543C745.363 59.997 748.849 70.333 747.885 85.623C746.759 103.484 740.242 119.55 729.874 130.026C721.775 138.209 716.641 140.518 704.819 141.295C699.437 141.648 695.276 141.513 694.943 140.975C694.627 140.463 698.385 120.262 703.294 96.084C708.203 71.905 712.221 51.961 712.223 51.762C712.225 51.564 717.103 51.569 723.064 51.773C732.512 52.096 734.352 52.452 737.405 54.543ZM564.131 83.623C564.787 93.248 565.585 103.261 565.904 105.873L566.484 110.623H552.855C545.359 110.623 539.226 110.386 539.226 110.097C539.226 109.808 543.547 100.695 548.828 89.847C554.109 78.999 559.103 68.57 559.925 66.672C562.178 61.474 562.788 63.933 564.131 83.623Z" fill="#009FD6"/>
</svg>
